<?xml version="1.0" encoding="UTF-8"?>
<svg id="Layer_1" data-name="Layer 1" xmlns="http://www.w3.org/2000/svg" viewBox="0 0 400 400">
  <defs>
    <style>
      .cls-1 {
        fill: #fff;
      }
    </style>
  </defs>
  <circle class="cls-1" cx="200" cy="200" r="200"/>
  <path d="M283.08,218.35c-4.77-6.84-10.64-11.94-17.62-15.31-6.98-3.37-13.84-5.2-20.58-5.49v-2.6c6.26-.96,12.15-3.13,17.69-6.5,5.54-3.37,10.09-8.06,13.65-14.08,3.56-6.02,5.34-13.41,5.34-22.17,0-15.31-5.8-27.2-17.4-35.67-8.69-6.34-19.39-10.31-32.1-11.91v-32.55h-34.53v31.75h-12.76v-31.75h-34.53v31.75h-24.65v197.14h24.65v26.97h34.53v-26.97h12.76v26.97h34.53v-27.51c8.4-.88,16.34-2.85,23.79-5.96,10.4-4.33,18.72-10.69,24.98-19.06,6.26-8.38,9.39-18.58,9.39-30.62,0-10.78-2.38-19.59-7.15-26.43ZM182.05,142.38h21.09c7.41,0,13.12,1.81,17.11,5.42,3.99,3.61,5.99,8.35,5.99,14.23,0,3.56-.84,6.86-2.53,9.89-1.69,3.03-4.31,5.47-7.87,7.29-3.56,1.83-8.18,2.74-13.86,2.74h-19.93v-39.57ZM225.74,255.68c-4.48,4.48-11.72,6.72-21.74,6.72h-21.95v-46.07h23.11c6.16,0,11.27.96,15.31,2.89,4.04,1.93,7.05,4.62,9.03,8.09,1.97,3.47,2.96,7.42,2.96,11.84,0,6.55-2.24,12.06-6.72,16.54Z"/>
</svg>