<?xml version="1.0" encoding="UTF-8"?>
<svg id="Layer_1" data-name="Layer 1" xmlns="http://www.w3.org/2000/svg" viewBox="0 0 400 400">
  <defs>
    <style>
      .cls-1 {
        fill: #fff;
      }
    </style>
  </defs>
  <circle class="cls-1" cx="200" cy="200" r="200"/>
  <path d="M280.39,138.2c-2.91-5.46-6.33-10.36-10.28-14.69-4.79-5.43-9.61-9.5-14.47-12.21-.97-.54-1.98-1.07-3.03-1.59l8.43-22.75-43.96-16.28-9.21,24.89c-3.79-.74-7.65-1.3-11.6-1.67-3.09-.31-6.2-.56-9.33-.75-3.13-.18-6.35-.03-9.67.45-.54-.16-1.7-.13-3.49.07-1.79.21-3.66.39-5.58.55-1.93.17-3.68.45-5.24.87-1.57.41-2.39.76-2.46,1.02-2.46,15.49-5.49,30.44-9.08,44.87-3.6,14.43-7.46,28.78-11.59,43.06-4.13,14.28-8.3,28.9-12.49,43.88-4.19,14.98-8.2,30.59-12.04,46.83,3.15,2.07,7.06,4.58,11.71,7.51,3.06,1.94,6.28,3.85,9.61,5.74l-9.27,25.04,43.96,16.28,8.84-23.89c2.55.38,5.16.65,7.82.76,5.85.25,11.42.27,16.68.06,7.55-.12,15.13-1.33,22.73-3.61,7.6-2.28,13.81-6.77,18.65-13.47,3.68-4.72,6.03-10.62,7.07-17.69,1.03-7.07.85-13.7-.53-19.89-.87-4.01-2.47-7.94-4.82-11.81-2.35-3.86-5.07-7.46-8.15-10.82-3.08-3.35-6.29-6.52-9.61-9.5-3.33-2.98-6.36-5.75-9.1-8.27.26.08,1.39-.32,3.38-1.19,1.99-.87,4.23-1.88,6.73-3.04,2.5-1.15,4.77-2.23,6.79-3.24,2.02-1,3.38-1.69,4.07-2.08,6.49-2.46,13.16-6.02,20.01-10.69,5.81-4.1,11.04-9.17,15.68-15.2,4.63-6.03,7.02-12.78,7.17-20.26.02-6.07-1.42-11.83-4.32-17.3ZM193.95,250.65c-.34,2.39-1.11,4.74-2.3,7.05-.67,1.25-1.48,2.29-2.44,3.12-.96.83-2.02,1.49-3.18,1.96-1.16.47-2.39.78-3.7.92-1.31.14-2.62.16-3.93.04-1.15-.11-2.3-.23-3.46-.35s-2.3-.36-3.42-.73c-.2-.06-.64-.22-1.3-.47-.67-.26-1.35-.53-2.05-.82-.7-.29-1.33-.58-1.87-.87-.55-.29-.81-.47-.79-.55.86-2.67,1.7-5.34,2.51-8,.81-2.66,1.63-5.34,2.45-8.02l2.24-7.72c.16-.56.29-1.09.39-1.59.1-.49.21-.98.32-1.44.11-.47.27-.92.46-1.37.19-.44.47-.9.82-1.36.27.12.82.29,1.65.51.83.22,1.79.49,2.87.8,1.09.31,2.22.68,3.41,1.09,1.19.41,2.28.85,3.28,1.31,2.07.99,3.76,2.34,5.07,4.05,1.31,1.71,2.22,3.62,2.72,5.73s.58,4.35.24,6.74ZM222.44,152.2c-.34,2.39-1.11,4.74-2.3,7.05-.67,1.25-1.48,2.29-2.44,3.12-.96.83-2.02,1.49-3.18,1.96-1.16.47-2.39.78-3.7.92-1.31.14-2.62.16-3.93.04-1.15-.11-2.3-.23-3.46-.35-1.16-.12-2.3-.36-3.42-.73-.2-.06-.64-.22-1.3-.47-.67-.26-1.35-.53-2.05-.82-.7-.29-1.33-.58-1.87-.87-.55-.29-.81-.47-.79-.55.86-2.67,1.7-5.34,2.51-8,.81-2.66,1.63-5.34,2.45-8.02l2.24-7.72c.16-.56.29-1.09.39-1.59.1-.49.21-.98.32-1.44.11-.47.27-.92.46-1.37.19-.44.47-.9.82-1.36.27.12.82.29,1.65.51.83.22,1.79.49,2.87.8,1.09.31,2.22.68,3.41,1.09,1.19.41,2.28.85,3.28,1.31,2.07.99,3.76,2.34,5.07,4.05,1.31,1.71,2.22,3.62,2.72,5.73.5,2.11.58,4.35.24,6.74Z"/>
</svg>