<?xml version="1.0" encoding="UTF-8"?>
<svg id="Layer_1" data-name="Layer 1" xmlns="http://www.w3.org/2000/svg" viewBox="0 0 479 479">
  <defs>
    <style>
      .cls-1 {
        fill: #fff;
      }

      .cls-2 {
        stroke: #000;
        stroke-miterlimit: 10;
      }
    </style>
  </defs>
  <circle class="cls-1" cx="239.5" cy="239.5" r="239.5"/>
  <g>
    <path class="cls-2" d="M347.45,309.62c6.87-29.9-6.25-48.04-29.78-60.3,19.04-4.39,33.38-16.91,37.2-42.78h0s0,0,0,0c5.28-35.33-21.62-54.33-58.4-67l11.93-47.86-29.14-7.26-11.62,46.6c-7.66-1.91-15.53-3.71-23.34-5.49l11.7-46.91-29.12-7.26-11.94,47.85c-6.34-1.44-12.56-2.87-18.6-4.37l.03-.15-40.18-10.03-7.75,31.12s21.62,4.95,21.16,5.26c11.8,2.94,13.93,10.75,13.58,16.95l-13.59,54.53c.81.21,1.87.5,3.03.97-.97-.24-2.01-.5-3.08-.76l-19.05,76.38c-1.44,3.58-5.1,8.96-13.35,6.92.29.42-21.18-5.28-21.18-5.28l-14.46,33.35,37.91,9.45c7.05,1.77,13.97,3.62,20.77,5.36l-12.06,48.41,29.1,7.26,11.94-47.9c7.95,2.16,15.67,4.15,23.22,6.03l-11.9,47.67,29.14,7.26,12.05-48.32c47.98,9.08,84.46,5.85,101.07-34.85.72-5.02,2.39-10.11,4.71-14.84ZM288.28,299.89h0c-9,36.18-69.92,16.62-89.67,11.72l16-64.14c19.75,4.93,83.08,14.69,73.67,52.42ZM297.3,206.03h0c-8.21,32.91-58.91,16.19-75.36,12.09l14.51-58.17c16.45,4.1,69.41,11.75,60.86,46.08Z"/>
    <g>
      <path class="cls-2" d="M347.45,309.62c6.87-29.9-6.25-48.04-29.78-60.3,19.04-4.39,33.38-16.91,37.2-42.78h0s0,0,0,0c5.28-35.33-21.62-54.33-58.4-67l11.93-47.86-29.14-7.26-11.62,46.6c-7.66-1.91-15.53-3.71-23.34-5.49l11.7-46.91-29.12-7.26-11.94,47.85c-6.34-1.44-12.56-2.87-18.6-4.37l.03-.15-40.18-10.03-7.75,31.12s21.62,4.95,21.16,5.26c11.8,2.94,13.93,10.75,13.58,16.95l-13.59,54.53c.81.21,1.87.5,3.03.97-.97-.24-2.01-.5-3.08-.76l-19.05,76.38c-1.44,3.58-5.1,8.96-13.35,6.92.29.42-21.18-5.28-21.18-5.28l-14.46,33.35,37.91,9.45c7.05,1.77,13.97,3.62,20.77,5.36l-12.06,48.41,29.1,7.26,11.94-47.9c7.95,2.16,15.67,4.15,23.22,6.03l-11.9,47.67,29.14,7.26,12.05-48.32c47.98,9.08,84.46,5.85,101.07-34.85.72-5.02,2.39-10.11,4.71-14.84ZM288.28,299.89h0c-9,36.18-69.92,16.62-89.67,11.72l16-64.14c19.75,4.93,83.08,14.69,73.67,52.42ZM297.3,206.03h0c-8.21,32.91-58.91,16.19-75.36,12.09l14.51-58.17c16.45,4.1,69.41,11.75,60.86,46.08Z"/>
      <g>
        <path class="cls-2" d="M306.82,208.04c-.23.4,1.43.65,1.7.79-.2-.84-2.13-.86-1.7-.79Z"/>
        <path class="cls-2" d="M304.1,200.5l.67.16c-.52-.37-1.07-.73-1.64-1.07.34.3.67.61.96.92Z"/>
        <path class="cls-2" d="M303.78,193.99c-1.37.54-1.18,1.06-.76,1.67.21.3.48.62.65.94.14.32.16.65-.09.94l-.65.21c.77.14,1.54.29,2.31.46-.32-1.48-2.12-3.13-1.46-4.22Z"/>
        <path class="cls-2" d="M308.93,188.81c-1,.57-1.15-.62-.09,1.06.09-.12.15-.17.23-.25-.06-.16-.12-.4-.14-.81Z"/>
        <path class="cls-2" d="M309.07,189.62c.29.81.76-.78,0,0h0Z"/>
        <path class="cls-2" d="M307.27,186.14c.44.22.88.45,1.32.69.54-.44.32-1.46.89-1.27-.93-.93-1.44-.41-2.21.57Z"/>
        <path class="cls-2" d="M304.97,185.99l.58.34c.22-.19.26-.37-.58-.34Z"/>
        <path class="cls-2" d="M306.79,187.09l-1.24-.77c-.37.32-1.23.66.49.38-.82.22.01.13.75.39Z"/>
        <path class="cls-2" d="M306.61,187.86c-.38.77-.52,1.55-1.8.91.53.82,1.14,1.08,1.63.87.46-.2.73-.9.17-1.78Z"/>
        <path class="cls-2" d="M300.82,194.16l-.75.74,1.02.39c-.5-.19.61-1.31-.27-1.13Z"/>
        <path class="cls-2" d="M305.5,179.37c-.55.27-1.18,1.16-1.8,1.63l1.01.29c.15-.55.06-1.39.79-1.92Z"/>
        <path class="cls-2" d="M303.7,181c-.5-.14-1-.27-1.49-.38.43.89.95.79,1.49.38Z"/>
        <path class="cls-2" d="M302,187.07c.87.23,1.76.51,2.66.82-.95-.42-1.87-.8-2.81-1.11.06.09.11.19.15.29Z"/>
        <path class="cls-2" d="M302.92,175.62l1.52-.34c-.81.11-1.61.24-2.4.39l.88-.05Z"/>
        <path class="cls-2" d="M300.83,173.56c1.19-.43.99-1.82,1.87-1.93-.72-.46-1.92-.27-2.97-.07.8.1,1.2.71,1.1,2Z"/>
        <path class="cls-2" d="M298.11,171.84c.41,0,.99-.16,1.62-.27-.43-.05-.94.02-1.62.27Z"/>
        <path class="cls-2" d="M301.4,178.9c.24-.28.92-.98.85-1.73l-1.09,1.38c.07.11.16.23.24.35Z"/>
        <path class="cls-2" d="M301.13,178.59l.03-.04c-.26-.39-.42-.66-.49-.79.06.1.2.35.46.83Z"/>
        <path class="cls-2" d="M301.46,178.99s-.04-.06-.06-.09c-.11.13-.14.18.06.09Z"/>
        <path class="cls-2" d="M302.18,183.95c-1.12-.14-2.63-.6-3.3,1.11,1.21-.2,1.61-1.24,3.3-1.11Z"/>
        <path class="cls-2" d="M300.03,180.65l.28,1.15c.37-.26.8-.8,1.37-.8-.56-.13-1.11-.24-1.65-.35Z"/>
        <path class="cls-2" d="M299.28,180.54c.25.03.51.06.75.11-.03-.14-.07-.28-.12-.42l-.63.3Z"/>
        <path class="cls-2" d="M298.38,174.35c-.88.17-1.27-.19-1.78-.48.23.64.53,1.28.96,1.71.45-.31,1.34-.76.82-1.23Z"/>
        <path class="cls-2" d="M299.66,176.43c-.05,0-.09-.02-.14-.02-.06.14-.07.22.14.02Z"/>
        <path class="cls-2" d="M292.33,170.23c-.04.1-.08.2-.12.3.07-.08.13-.15.2-.22l-.08-.08Z"/>
        <path class="cls-2" d="M297.4,175.88c.08.57.57.48,1.15.33-.37-.15-.71-.34-.99-.62-.2.14-.32.24-.16.3Z"/>
        <path class="cls-2" d="M296.35,171.31c-.05.44-.04.85-.02,1.25.19-.56.38-1.53.02-1.25Z"/>
        <path class="cls-2" d="M299.76,175.98s.08,0,.11,0c.17-.36.05-.23-.11,0Z"/>
        <path class="cls-2" d="M299.76,175.98c-.36-.02-.8.11-1.21.22.3.12.62.2.97.21.05-.12.15-.29.25-.43Z"/>
        <path class="cls-2" d="M284.63,178.19c.96-1.27,2.66-1.87,2.28.02,1.37-.43,4.25-4.8,5.31-7.67-.44.54-.84,1.02-2.18,1.19-.21.9.46,2.93-1.04,3.56-1.44-.1-.44-1.06-.44-2.09-.76,1.88-2.92,1.47-4.33,4.02l1.39-.28c-.25.38-.95.76-.97,1.25Z"/>
        <path class="cls-2" d="M293.66,171.88l.46.11c-.2-.52-.07-1.22.18-2.6-1.06.15-1.53.53-1.89.92l1.51,1.48-.26.09Z"/>
        <path class="cls-2" d="M295.58,173.29c-1.42,1.03-2.63.94-3.42,2.73.94.69,1.57-.52,2.62-.57-1.76-1.02,1.09-.31.67-2.01.5.06.83.24,1.14.42-.13-.4-.22-.84-.26-1.31-.01.04-.02.07-.04.11h.01s-.02.02-.02.02c-.08.22-.15.34-.14.17-.02.01-.04,0-.06,0-.17.17-.34.3-.51.42-.21-.67.23-.4.51-.42.06-.06.13-.11.19-.17,0,0,0-.01,0-.02-.74-.24-1.46-.48-2.18-.68.18.46.61.79,1.46,1.3Z"/>
        <path class="cls-2" d="M295.18,186.12c.1-.12.21-.19.31-.26-.24.02-.38.06-.31.26Z"/>
        <path class="cls-2" d="M295.68,184.97c.27-.03.91-.31.99.15-.24.58-.7.43-1.17.75.51-.04,1.54.11,1.82-1.01h-.27c.12-.9,1.33-2.97,1.6-3-1.14,1.08-1.94,1.88-2.96,3.12Z"/>
        <path class="cls-2" d="M295.76,179.49l-1.7-.58c-.18.54-.37,1.06-.56,1.58l.64-.63c.33.87,1.03,0,1.63-.37Z"/>
        <path class="cls-2" d="M292.7,169.43l1.28-1.31c-.79.48-1.56.94-2.33,1.46.35-.07.7-.1,1.05-.15Z"/>
        <polygon class="cls-2" points="290.79 168.33 291.77 167.08 290.74 167.53 290.79 168.33"/>
        <path class="cls-2" d="M234.41,207.33l.43.11c-.13-.05-.28-.09-.43-.11Z"/>
        <path class="cls-2" d="M234.79,206.25l-.77-.13c.41.11.73.17.77.13Z"/>
        <path class="cls-2" d="M241.49,150.88c-1.29-1.82-3.24-4.63-2.54-2.64l.85,1.98c.58-.18,1.16.16,1.69.66Z"/>
        <path class="cls-2" d="M231.4,181.8c.18-.01.37-.03.55-.04-.54-.28-1.05-.55-1.51-.79.29.25.62.53.96.83Z"/>
        <path class="cls-2" d="M238.27,183.94l-1.27.48c.42-.08.84-.23,1.27-.48Z"/>
        <path class="cls-2" d="M237.05,210.31c.55-.47,1.09-.94,1.61-1.41-.11-.02-.85.71-1.61,1.41Z"/>
        <path class="cls-2" d="M271.92,159.58c-.29-.83-.61-1.25-.94-1.46.3,1.15.28,2.75.94,1.46Z"/>
        <path class="cls-2" d="M215.62,206.59c.23.38.55.54.96.52-.21-.37-.5-.6-.96-.52Z"/>
        <path class="cls-2" d="M269.46,157.61c.04.2.1.31.14.48.48-.14.94-.23,1.37.04-.22-.86-.61-1.48-1.51-.52Z"/>
        <path class="cls-2" d="M279.87,213.53c.06.06.11.08.17.15-.09-.21-.14-.21-.17-.15Z"/>
        <path class="cls-2" d="M302.64,213.74c.01.24-.12.56-.23.88.17-.1.27-.35.23-.88Z"/>
        <path class="cls-2" d="M283.88,163.28c.44.11.15-.14,0,0h0Z"/>
        <path class="cls-2" d="M282.43,170.31c-.17.13-.35.31-.55.66.23-.35.41-.55.55-.66Z"/>
        <path class="cls-2" d="M262.38,166.65l-.03-.02c0,.36,0,.29.03.02Z"/>
        <path class="cls-2" d="M284.1,164.29c-.04-.27-.13-.52-.25-.73.02.16.09.39.25.73Z"/>
        <path class="cls-2" d="M284.4,163.53c.1.14.18.24.26.33.19-.23.23-.41-.26-.33Z"/>
        <path class="cls-2" d="M283.29,163.09c.24.09.41.26.55.48-.02-.15,0-.25.04-.29-.13-.03-.3-.08-.59-.19Z"/>
        <path class="cls-2" d="M254.21,219.94c.02.06.04.1.06.17.46-.66.28-.57-.06-.17Z"/>
        <path class="cls-2" d="M242.09,170.58s-.04-.07-.06-.11c-.02-.01-.04-.03-.05-.04l.11.15Z"/>
        <path class="cls-2" d="M242.95,172.47c-1.64-2.34-1.37-2.33-.97-2.03-1.3-1.69-2.61-3.33-3.93-4.93,1.6,2.44,3.24,4.76,4.9,6.96Z"/>
        <path class="cls-2" d="M234.34,209.7c.63-.37,1.25-.7,1.86-1.01,2.87-.89,1.87-.56,4.42-1.69-3.15,1.4-3.26,1.27-3.37,1.15-.11-.12-.22-.24-3.19.42.44-.18.87-.34,1.3-.49-.07.07.28,0,.2.07,1.46-.48.4-.27-.88-.17-1.28.13-2.77.17-2.26-.27.51-.32,1.36-.49,2-.38-.43-.13-.85-.29-1.26-.49.15-.16,1.1-.08.96.05-.09-.25-.17-.52-.25-.8l.16.03c-.83-.21-2.05-.75-2.55-1.05.83-.1.53.25,1.21.32-.38-.27-.78-.51-1.1-1.01.73-.03,1.38.24,1.8.6.1.09.19.19.27.28.08.06.15.11.2.17.1.1.13.19.06.26,1.36.16,1.95.25,2.13.24.09,0,.08-.02.01-.08-.06-.09-.17-.21-.3-.33-.52-.5-1.28-1.2.51-1.83l.43,1.12c3.14.13,2.24-.88,4.38-1.49-1.04.01-5.23.98-6.28-.44.47-.21.77-.57-.15-1.42,1.88.46,1.56-.23,1.63-.98l2.47.67c-.52-.96-1.8-1.21-2.81-1.95.46-.81,2.43-.51,4.1-.31.74-1.29-3.32.19-3.38-1.57,1.24-.92.43-1.98-.71-3.74,1.06-.6,1.48.52,2.27.41l-1.8-1.21c.09-.16.69.04.99.15-.62-.8-2.47-.67-2.91-1.79-2.67-.94,4.48-.95,1.67-2.9.78-.11,1.49.52,2.47.67-1.63-2.12-1.13-1.75-3.55-3.76l1.91-.72c-2.07.36-4.01-1.25-5.59-2.63-.97.07-1.82.12-2.24.2l-.96-1.81c.45-.08,1.27.28,2.24.79-.18-.15-.36-.3-.53-.42,1.05-.3,2.41.33,3.71,1.06-.55.05-1.11.1-1.66.15,1.42.74,3,1.5,4.47,1.79-.26-.17-.46-.41-.55-.65.39.2.74.35,1,.37.27.01-.24-.28-.81-.68l2.85.35-1.08-.36,2.22-1.51c-2.44-2.08-6.24-4.32-6.84-6.78,1.89,1.06,3.28.98,5.66,1.68-1.3-.22-1.16.39-.75.98.4.62,1.04,1.38.64,1.88.42-.53,1.53-.11,1.89.14l-1.81-2.61c.97.28,1.38.22,1.63.16.25-.03.36-.13.79-.13-3.9-.92-2.33-1.68-3.33-2.75,1.24.57,2.48,1.29,2.05,1.68,1.48.28.42-.3-.66-1.09-1.08-.75-2.18-1.7-.93-1.41-.01.18-.22.17.38.58-.5-.48-.46-.87-.19-.99.27-.13.78.04,1.27.5v.16c.32-.34.49-.99.25-2.01-.24-1-.87-2.47-2.2-4.17.34.41,3.18,3.87,3.79,4.61-2.95-3.95-5.72-8.62-8.3-14.02,1.07,1.75,2.99,4.25,4.74,6.78,1.75,2.52,3.35,5.01,3.9,6.2.37.24.78.62.11-.97-.33-.4-3.25-4.44-3.38-5.02.55.64.94,1.1,1.23,1.44.28.34.44.52.63.77.49.59.8.87,2.19,2.79-.3-.39-1.18-1.93-1.87-3.32-.7-1.4-1.19-2.64-.88-2.49.35.78,2.78,5.27,2.96,5.8-.67-1.69-1.19-3.35-1.55-4.97.12.86,2,4.36,2.76,5.84-.51-1.02.67.23.67-.22-.24-.41-.5-.83-.77-1.24.61.48.24-1.22.07-2.95-.2-1.73-.23-3.48.65-3.16-.06.94.88,6.08,1.45,6.79-.1-1.21-.28-4.1.05-6.8.3-2.7,1.19-5.2,2.32-5.86l.33,1.42c.54-.39,1.12-.76,1.74-1.13-.76,1.6-1.94,4.08-2.68,6.6-.78,2.51-1.1,5.03-1.21,6.47.43,1.17.24,1.65.65,1.62.16,1.31-.1,1.9-.15,1.96.24.33.44.65.6.96.06-2.75.84-2.57,1.21-4.79-.62.81-1.09,1.65-1.39,2.54-.02-1.38.12-3.31.61-4.75.47-1.45,1.32-2.39,1.98-1.99.07.57-.26,1.72-.58,2.85-.32,1.13-.62,2.25-.69,2.69.14-.44.41-.83.7-1.02.43-.15.8-.1.79.24l-1.01,1.23c.63,1.2,2.3-3.1,2.73-.34.32.26.2,3.63.67,2.11.2-3.12,2.45-12.35,3.45-14.46.09.24,1.27,3.36,1.29,4.95-.03,2.49-2.43,5.27-2.46,7.41.21-.7.78-1.48,1-1.73.21.71-.76,2.15.15,2.06.87-2.59,1.62.69,1.02-2.11,1.03-.52.71.78,1.69.95.19-1.78,2.57-5.49,3.65-5.98-.25.65-.33,1.57-.36,1.99,1.62.78,2.14,2.23,3.67,2.8-.07.67.4,1.68-.31,2.68.38-.38.89-1.18,1.38-1.08.09,2.54-1.16-.03-1.43,2.88.6-1.48,1.93-1.61,2.95-2.29.66-2.36-1.38-1.04-2.38-.32,1.12-3.19,3.51-6.09,5.78-6.89,1.66-.26-.22,2.26.19,1.9,2.23,1.56,4.43-4.58,5.59-1.38-.06,2.33-1.74,3.91-2.19,5.41-1.36.29-1.04-1.98-1.8-2.19l.48,1.31c-.61.5-1.52.73-1.66,0-.08,2.02,3.9,2.08,4.86,4.59.64-.49,1.53-.87,1.67-1.77l-.71-.02c.25-1.81,2.2-1.59,1.83-2.68,1.34-.68,3.19-1.83,3.85-.35l-1.02,2.24c.34-.63,0-1.67-.68-1.19.5-.34.52.61.66,1.34.14.74.39,1.25,1.48.04l.1-1.93c1.41-.56,3.86-2.17,4.47-.8.86-2.34-.37.05.41-2.79-1.24,3.37-2.66-1.81-3.53,2,.92-3.31-.6-1.97-.27-4.99-.36.73-.38,1.56-1.1.71-.15.19-.39.4-.54.52-.02-.03-.02-.05-.03-.09,0,.04,0,.07,0,.11-.1.09-.11.11,0,.04.05.43.02.9-.13,1.33-1.32,1.37-2.67.61-3.57,1.25-.34-.6.63-.72.73-1.63l-1.34.94c.73-1.64-.12-3.39,1.6-3.71-.37-.21-.74-.43-1.11-.62-.25-1.22-1.04-2.01-1.92-1.58-.4-.62-2.15,1.26-1.13.15l-2.22.29.15-.42c-1.72-.93-4.64,1.39-5.57-2.36-.75.22-1.53.53-2.36-.27l.29-1.54c-.93.27-1.86-2.23-2.66-.77.19-2.12-.69-2.63-1.76-2.73-1.06-.09-2.3.22-2.88-.33l-.58,1.94c-.89-.36-1.93-.03-3.27.46l-.38,1.75c-.67.59-1.21.13-1.79-.51-.14-.16-.29-.33-.44-.5-.17-.17-.25-.32-.55-.5-.51-.34-1.07-.61-1.66-.7.26-.64.85-.32,1.18.18-1.02-2.31-2.83-2-4.3-1.43-1.53.55-2.69,1.33-4.15-.52-.54.55-1,.21-1.55-.37.06,0,.1-.01.14-.06-.07-.04-.17-.06-.27-.08-.35-.4-.72-.85-1.12-1.24.39.54.73.98.98,1.21-.48-.07-1.19-.01-1.77.31l-.9-2.19c-.05.01-.11,0-.16.02-1-.97-.28.87.56,2.55-.25.27-.43.61-.5,1.08-.83-1.79-1.23-1.61-1.61-1.46-.39.15-.76.28-1.95-1.71.29,1.73-3.02.54-1.09,4.5-.31-.53-.63-.82-.31-.78-.88-.59-1.83-1.2-1.84-.39l.04.19-1.88-2.61c.67,1.84,1.36,3.61,2.07,5.29-1.34-.81-2.13-1.2-3.31-4.26.79,2.81.9,3.49,1.01,4.2.11.68.21,1.36,1.14,3.57l-1.25-1.54c-.13.79,1.35,3.6.18,2.9-1.43-.5-2.02,1.44-2.65,3.66-.64,2.26-1.3,4.7-3.19,6.48,2.34.25,1.72.56.94,1-.74.28-1.62.57.11,1.07-1.11-.1-1.81.15-2.63-.55.69,1.72-2.24,1.76.46,3.5-1.12-.1-1.49-.7-2.16-.71.2.17.82.69.14.69-.67-.01-.85-.44-1.25-.78-.19,1.53,3.07,2.5,6.14,3.38-1.65.39-1.54.81.35,1.86-1.08,0-2.25.18-2.38-.83-.28.48-2.28,2.8.19,3.47-.67,0-.36.68-.11.89-.44,1.13-.69,1.18-.74,2.38l.48-.22c2.88,1.2.43,1.12.56,2.13l-.3-.1c-2.69,1.58.81,1.17-2.18,2.64l1.89.35c3.96,1.19-2.82,1.26-1.59,2.85l1.17-.17c1.21,1-5.91.49-6.57,1.03-.38.06-.5-.37-.71-.63-2.79,1.15,2.38.83,2.63,2.27-1.37-.09-3.27-1.14-3.73-.33-.59.08.32.98,1.03,1.93.35.47.65.96.69,1.36.02.2-.03.38-.17.53-.07.07-.16.14-.28.2-.13.1-.29.2-.48.28.56-.09,1.12-.18,1.59-.06.48.08.9.29,1.18.82.02.68-1.17,1.37-2.03,2.24-.85.84-1.37,1.84.18,2.46-.34.17-.64.24-.9.25.61,1.07.63,3.31,2.42,3.52-3.67,1.01-3.24,2.62-2.62,3.73.61,1.14,1.4,1.86-2.11,3.3l-.42,3.03-.72.29c-.67,1.59-.2,2.03.73,1.95.77-.23,1.55-.51,2.32-.81-.06.42-1.04.75-1.45.98,1.44,1.64,2.44,1.63,7.52-.2l-1.57,1.64c.85-.37,1.15.51,2.03,1.39.85.87,2.33,1.76,4.49,1.13-.16.19-.45.51-.86.69,1.2-.29,2.05,0,2.85.5.79.51,1.52,1.26,2.31,1.84.78.59,1.61,1.03,2.41.9.39-.07.82-.26,1.14-.69.32-.42.59-1.04.92-1.89l1.92-1.38c-1.82-1,.99-2.99.46-4.34.84-.23,1.48,2.57.46,2.72l-.07-.39c-1.18,3.6,2.14,1.84,1.55,4.33,3.93.66,7.44,3.41,11.29,4.1l-.03-2.96,1.29.35c.26.72.17,2.34-.76,2.08.28,1.72,1.78-1.17,1.87-1.8,1.73,1.39-1.14,3.3-.58,3.44l.82-.13-.14-.36c.78-1.11.97-2.37,2.09-2.09.67.65.2,1.83.48,1.97-.02.21.07.31.44.12l1.71.4-.51-2.36c.84-1.07,1.57.25.99-2.42.41,2.05,1.99,2.51,3.54,2.58,1.56.04,3.04-.25,3.42.35,1.07-1.72,2.08-1.67,3.42-1.57-.36-.46-.68-3.04.42-2.8-.03,5.37,2.19,2.2,3.6,5.87-.58-1.22.25-1.48.98-1.86.74-.37,1.37-.96.44-2.62,1.02.26.37,1.97,1.33,3.08.51-.62,1.09-.91,1.74-1.01.65-.12,1.37-.1,2.13-.02,1.51.19,3.25.27,4.65-.57-.21-.68-1.06-1.5-.83-2.71.92.88,1.88,1.75,2.89,2.59.48-.6-1.16-3.89.94-2.21-.41-.45-1.01-1.14-.75-1.54.86.02,1.69-.11,2.47-.35.78-.23,1.48-.69,2.15-1.14.34-.23.66-.48.98-.74.3-.28.59-.58.88-.88.56-.62,1.15-1.2,1.66-1.86.51-.66,1.02-1.3,1.58-1.91.56-.6,1.06-1.25,1.71-1.8.32-.28.66-.55,1.03-.81.35-.27.71-.53,1.11-.78.8-.5,1.76-.95,2.89-1.38-1.68.22-1.44-.39-1.24-1.03-.47.26-1.56-.76-2.46-1.09,1.13-.4,2.29-.86,3.47-1.4-1.12-.7-.93-1.36-.78-2.01.17-.65.34-1.27-.84-1.74l.21.89c-1.27-.94-2.98-1.04-4.78-1.19-1.81-.13-3.7-.32-5.49-1.02,1.48.97.03,1.08-1.17,1.18-.61.06-1.16.12-1.32.37-.19.24,0,.65.92,1.52-.82-.14-.97-.8-1.82-1.1,1.29,1.03,1.39,1.61.41,1.8l-.29-.28c-.8,1.76-2.57,1.47-4.65,1.79l1.33,1.35c-.5.1-.94-.31-1.37-.55,1.39,2.59,1.01-.67,2.71,2.05-.76-.62-1.28-.81-1.68-.79-.41.02-.77.19-1.11.38-.65.4-1.45.63-2.66-1.2-.58.29,1.22,1.83.6,2.14l-.7-.97.53,1.45c-.56-.02-1.4-1.29-1.81-2.2.15.07.16-.37.22-.49-1.08-1.08-1.2,1.07-1.61.7.3.17.57.3.86.44-.29.46-.78.7-1.26.92-.24.11-.5.2-.75.3l-.82.23c-1.07.36-2.16.75-3.03,2.14l.3.85c-.71.96-1.12.73-1.52.43-.42-.32-.82-.7-1.74-.25l.05-.22c-.3.91-.8,1.4-1.34,1.33.41-1.08-1.02-1.97-.45-3.17-1.78,1.86-.84,1.42-2.06,4.79l-.32-1.48c-.43,1.35-.47,2.07-1.5,2.43.85-1.26-.61-2.27.32-3.94-1.01-1.65-1.75-.82-2.41-.23-.65.6-1.19,1.01-1.52-1.38-1.22,4.05,1.68,2.37,1.1,3.22.41,1.37-.97,3.02-1.64,2.57-.71-.12-.81-5.33-2.46-5.39.16.03.2-.27.37-.24-.51-1.09-1.37,1.3-1.96-.49-.72,2.42-.98-.26-1.49,2.87l1.66-.55c-.96.71-2.29,4.32-3.56,2.31.21-.62.76-1.39,1.12-1.81-.31-.99-.92.5-1.23-.52.57-3.12,2.01-.41,3.23-2.71-.28-1.38-2.05,2.07-1.14-1.28-1.25,4.23-1.56-.78-3.18,2.36l.36-1.87c-.22.27-.74,1.09-1.06.99l.98-2.33c-1.25,1.92-1.46-2.1-2.51-1.12,1.84.25.02,2.32.57,3.82-2.76,2.12-.47-5.12-3.14-4.69.39-.2,1.07,1.36.37,2.12-.41-.47-.92-1.32-1.02-2.35-1.76.04-.13,1.97-1.08,2.96-.12-2.39-1.02.76-1.94,1.32l.4-1.89c-1.69-1.64-1.37,3.82-2.83,1.97l1.33-2.45-1.07.47.67-2.1c-1.35,1.36-1.58.87-2.41.05-.06,1.38-1.05,3.36-1.55,3.29-.02-1.18.7-1.72-.03-1.61.58-1.1,1.1-2.53.84-.77.2-.6.43-1.14.6-1.74.14-1.32-.4-.41-.58-.43.03.08.05.19,0,.46-.52.79-1.14,1.56-1.87,2.29.2-.7.6-1.2.95-1.7-.24.16-.78.93-1.13,1.02.89-1.39,1.77-2.85,2.29-3.48-.4.5-.87.98-1.41,1.44.34-.62.91-1.71,1.33-2.19.22-.42-.36.22-1.05.79-.68.57-1.49,1.07-1.16.53-.28.24-.58.47-.88.62-.05-.2.32-.69.42-.93.09-.24-.08-.23-1.54.51.98-.71,2.01-1.42,3.09-2.11-.11.06-.2.1-.26.13-.39.2-1.06.6-1.8,1.07-.93.58-1.91,1.27-2.86,1.7-.27.12-.47.17-.63.16-.92-.01,2.91-1.77,3.88-2.41-.82.37-2.05.86-2.71.97-.66.13-.75-.13.61-.85.57-.08.06.21.27.25ZM234.75,202.89c.33.37,1.4,1.21.25,1.13-2.07-.84-.98-.82-.25-1.13ZM235.51,180.65c.57.35.19.59-.61.76-.09-.29.05-.56.61-.76ZM278.94,162.64s-.04.04-.07.07c-.32-.97-.22-.6.07-.07ZM279.89,163.98c.24-.18.35-.43.41-.7-.3.39-.6.3-.88.02-.12.5-.1.89.47.67ZM256.84,233.3l-.22-.53c.65-.5.44-.01.22.53Z"/>
        <path class="cls-2" d="M237.47,183.69c-.34,0-.69-.07-1.05-.14.29.18.65.28,1.05.14Z"/>
        <path class="cls-2" d="M236.75,210.57s0,0,0,.02c.12-.11.22-.19.31-.28l-.31.26Z"/>
        <path class="cls-2" d="M255.45,172.56c-.17-.34-.21-.71-.21-1.09-.14.45-.13.87.21,1.09Z"/>
        <path class="cls-2" d="M288.36,164.81l-1.1-.09c.46.17.39.62.43,1.01.22-.4.39-1.06.67-.92Z"/>
        <path class="cls-2" d="M287.98,179.12c.25-.11.22.13.46.03l.56-.71c-.45-.29-1.19.05-1.01.67Z"/>
        <path class="cls-2" d="M285.75,170.73c-.8,1.42-.04,1.23.66,1.32-.03-.02-.07-.03-.09-.06,1.4-1.8.4-1.54-.56-1.25Z"/>
        <path class="cls-2" d="M286.55,172.09c.2.05.39.13.5.3.57-.71-.09-.29-.5-.3Z"/>
        <path class="cls-2" d="M282,163.83c.09.51,1.11-1.77.97-1.1,1.23-1.7-2.98,1.31-.97,1.1Z"/>
        <polygon class="cls-2" points="283.31 175.51 284.2 173.71 283.07 174.91 283.31 175.51"/>
        <path class="cls-2" d="M280.07,171.93l.56.94c.15-.3.35-.42.55-.48-.48-.34-.85-1-1.11-.46Z"/>
        <path class="cls-2" d="M281.18,172.39c.25.18.52.28.83.08-.15-.06-.5-.17-.83-.08Z"/>
        <polygon class="cls-2" points="281.93 175.37 281.91 174.87 281.43 174.4 281.93 175.37"/>
        <path class="cls-2" d="M271.03,167.4l-1.16.18c-.34.61-.23,1.1.22.97.4-.36.85-.48.94-1.15Z"/>
        <path class="cls-2" d="M271.76,173.62c-.08-.48.08-.9.19-1.57l-.99,2.28.79-.71Z"/>
        <path class="cls-2" d="M268.94,173.1c-.35.61-2.01,1.36-.82,1.64.33-.61,1.45-.8.82-1.64Z"/>
        <polygon class="cls-2" points="255.77 165.59 256.02 165.62 257.04 161.68 255.77 165.59"/>
        <path class="cls-2" d="M246.34,173.3c.61,1.14-.59-2.72.12-1.31-.08-1.01-.6-1.16-.69-2.03-.08,1.03-.36.37.57,3.34Z"/>
        <path class="cls-2" d="M245.77,169.96c.02-.16.03-.36.04-.63-.05.25-.05.45-.04.63Z"/>
        <polygon class="cls-2" points="306 211.08 307.11 210.35 305.61 210.58 306 211.08"/>
        <path class="cls-2" d="M303.65,208.42l2.57.45-1.05-.58-.53-.28-.26-.14-.13-.07-.07-.03-.03-.02h-.02s0-.01,0-.01l-6.83,5.33h0s0,0,0,0h0s0,0,0,0h0s6.81-5.32,6.81-5.32h0s0,0,0,0h0s0,.02,0,.02v.02s.02.05.02.05c0,.03.01.07.02.11,0,.08,0,.15-.02.23-.05.14-.17.26-.48.26Z"/>
        <path class="cls-2" d="M240.34,202.09l-.59-.21c-.68-.05-.78.11-.97.44l1.56-.23Z"/>
        <path class="cls-2" d="M237.02,207.39l.06-.04c-.83.11-1.67.23-2.51.37l2.45-.32Z"/>
        <path class="cls-2" d="M240.14,207.26c.12-.07-.5.25-.38.17.5-.27-3.13,1.78.38-.17Z"/>
      </g>
      <g>
        <path class="cls-2" d="M297.82,301.85c-.25.46,1.42.69,1.69.84-.18-.96-2.12-.91-1.69-.84Z"/>
        <path class="cls-2" d="M295.16,293.28l.67.16c-.54-.41-1.13-.81-1.7-1.18.34.33.68.67,1.02,1.03Z"/>
        <path class="cls-2" d="M294.47,285.81c-1.33.66-1.12,1.25-.66,1.93.44.67,1.2,1.44.7,2.15l-.64.27c.77.13,1.54.28,2.32.44-.11-.41-.29-.85-.5-1.28-.25-.43-.5-.86-.75-1.28-.46-.83-.77-1.58-.48-2.23Z"/>
        <path class="cls-2" d="M299.14,279.83c-.47.33-.79.17-.82.15-.04,0,.26.08.84,1.02.08-.14.14-.19.21-.28-.08-.18-.13-.45-.23-.9Z"/>
        <path class="cls-2" d="M299.37,280.72c.36.9.7-.9,0,0h0Z"/>
        <path class="cls-2" d="M297.16,276.93c.46.23.93.48,1.4.73.5-.5.18-1.62.78-1.43-1.03-.99-1.49-.42-2.18.7Z"/>
        <path class="cls-2" d="M294.8,276.85l.66.33c.2-.21.21-.4-.66-.33Z"/>
        <path class="cls-2" d="M296.78,278l-1.32-.82c-.34.36-1.18.77.53.4-.81.27.03.14.8.41Z"/>
        <path class="cls-2" d="M296.67,278.86c-.31.86-.37,1.74-1.72,1.07,1.18,1.83,2.98.92,1.72-1.07Z"/>
        <path class="cls-2" d="M291.5,286.11c-.2.29-.44.58-.67.86l1.04.42c-.51-.2.53-1.53-.36-1.28Z"/>
        <path class="cls-2" d="M294.56,269.72c-.53.3-1.08,1.28-1.67,1.79l1.06.3c.09-.59-.09-1.51.6-2.09Z"/>
        <path class="cls-2" d="M292.89,271.51l-1.56-.4c.54.96,1.06.84,1.56.4Z"/>
        <path class="cls-2" d="M291.89,278.13c.97.2,1.88.49,2.81.82-.5-.22-.99-.43-1.48-.63-.51-.18-1.03-.34-1.53-.5l.2.3Z"/>
        <path class="cls-2" d="M291.48,265.81l1.53-.38c-.82.13-1.64.28-2.44.44l.9-.06Z"/>
        <path class="cls-2" d="M289.09,263.72c1.19-.46.85-1.93,1.75-2.05-.79-.48-2.01-.28-3.09,0,.85.04,1.32.7,1.35,2.05Z"/>
        <path class="cls-2" d="M286.07,261.96c.43,0,1.03-.15,1.67-.3-.45-.03-.98.03-1.67.3Z"/>
        <path class="cls-2" d="M290.27,269.33c.22-.31.84-1.06.69-1.86l-.98,1.48c.09.11.19.24.29.38Z"/>
        <path class="cls-2" d="M289.95,269l.03-.05c-.31-.41-.51-.71-.6-.84.07.11.24.38.57.89Z"/>
        <path class="cls-2" d="M290.34,269.42s-.05-.06-.07-.1c-.1.14-.12.2.07.1Z"/>
        <path class="cls-2" d="M291.71,274.69c-1.21-.07-2.81-.57-3.28,1.3,1.24-.26,1.49-1.36,3.28-1.3Z"/>
        <path class="cls-2" d="M289.06,271.22c.16.39.32.77.45,1.2.35-.29.73-.88,1.32-.88-.58-.14-1.17-.24-1.77-.31Z"/>
        <polygon class="cls-2" points="288.26 271.11 289.06 271.22 288.88 270.78 288.26 271.11"/>
        <path class="cls-2" d="M286.62,264.56c-.89.16-1.37-.13-1.93-.46.3.7.72,1.27,1.21,1.77.44-.33,1.32-.81.73-1.3Z"/>
        <path class="cls-2" d="M288.18,266.76c-.05,0-.1-.02-.15-.02-.05.15-.04.23.15.02Z"/>
        <path class="cls-2" d="M279.8,260.26c-.03.1-.07.21-.1.31.06-.08.12-.15.19-.23l-.09-.08Z"/>
        <path class="cls-2" d="M285.75,266.17c.14.6.65.52,1.24.35-.4-.15-.78-.37-1.1-.67-.2.15-.31.26-.13.31Z"/>
        <path class="cls-2" d="M284.17,261.4c-.01.46.04.89.11,1.32.14-.59.25-1.6-.11-1.32Z"/>
        <path class="cls-2" d="M288.23,266.29s.08,0,.11,0c.14-.38.02-.24-.11,0Z"/>
        <path class="cls-2" d="M288.23,266.29c-.37-.02-.83.12-1.24.24.32.13.67.21,1.03.22.04-.13.12-.31.21-.46Z"/>
        <path class="cls-2" d="M272.24,268.42c.91-1.28,2.73-1.9,2.53.09,1.45-.4,4.07-4.95,4.93-7.93-.42.55-.79,1.05-2.23,1.23-.14.91.81,3.03-.75,3.67-1.59-.13-.61-1.09-.71-2.17-.63,1.95-3.04,1.45-4.33,4.07l1.5-.24c-.23.39-.97.77-.93,1.28Z"/>
        <path class="cls-2" d="M281.36,262.01l.5.13c-.27-.54-.19-1.28-.06-2.72-1.11.14-1.57.53-1.92.93l1.75,1.57-.27.09Z"/>
        <path class="cls-2" d="M283.55,263.47c-1.4,1.08-2.69.95-3.34,2.84,1.08.75,1.62-.52,2.73-.56-1.97-1.11,1.12-.31.5-2.11.53.07.9.26,1.24.46-.18-.43-.32-.89-.41-1.38-.01.05-.02.08-.03.12h.01s-.02.02-.02.02c-.06.23-.12.35-.13.18-.02.01-.05,0-.06,0-.17.17-.33.31-.49.43-.28-.7.2-.41.49-.43.06-.06.12-.11.19-.18,0,0,0-.02,0-.02-.8-.27-1.59-.51-2.38-.7.24.47.74.78,1.69,1.34Z"/>
        <path class="cls-2" d="M284.74,277.19c.09-.14.19-.21.29-.28-.25.02-.39.07-.29.28Z"/>
        <path class="cls-2" d="M285.11,275.91c.28-.03.9-.34,1.04.17-.18.64-.67.48-1.12.83.53-.05,1.6.12,1.75-1.12l-.28.02c0-.52.26-1.32.55-2.03.27-.68.57-1.24.71-1.26-1.04,1.17-1.75,2.02-2.66,3.39Z"/>
        <path class="cls-2" d="M284.44,270.03l-1.86-.64c-.13.57-.26,1.14-.4,1.7l.59-.67c.45.94,1.09.01,1.67-.38Z"/>
        <path class="cls-2" d="M280.11,259.44l1.25-1.35c-.8.49-1.58,1-2.36,1.52l1.11-.17Z"/>
        <polygon class="cls-2" points="277.97 258.3 278.9 257.01 277.84 257.46 277.97 258.3"/>
        <path class="cls-2" d="M211.1,300.82c.14.05.28.1.43.14-.13-.06-.27-.11-.43-.14Z"/>
        <path class="cls-2" d="M211.52,299.57l-.76-.16c.41.14.72.2.76.16Z"/>
        <path class="cls-2" d="M224.12,239.45c-1.16-1.77-2.93-4.53-2.5-2.61l.61,1.92c.73-.15,1.36.19,1.88.69Z"/>
        <path class="cls-2" d="M209.11,271.2c.18-.02.37-.04.56-.07-.54-.3-1.04-.59-1.5-.85.28.28.6.59.94.91Z"/>
        <path class="cls-2" d="M215.96,273.4l-1.3.6c.43-.1.86-.29,1.3-.6Z"/>
        <path class="cls-2" d="M214.37,303.98c.47-.49.91-.98,1.34-1.48-.13-.02-.72.75-1.34,1.48Z"/>
        <path class="cls-2" d="M256.58,248.82c-.36-.85-.74-1.3-1.13-1.51.39,1.18.45,2.81,1.13,1.51Z"/>
        <path class="cls-2" d="M192.38,299.77c.21.45.53.63.93.62-.2-.43-.47-.7-.93-.62Z"/>
        <path class="cls-2" d="M253.74,246.72c.05.2.12.32.18.49.53-.13,1.04-.2,1.54.08-.28-.88-.75-1.52-1.72-.58Z"/>
        <path class="cls-2" d="M268.58,308.87c.06.06.12.08.18.15-.08-.22-.13-.22-.18-.15Z"/>
        <path class="cls-2" d="M293.24,308.48c0,.27-.17.64-.3,1,.18-.11.3-.41.3-1Z"/>
        <path class="cls-2" d="M270.06,252.97c.49.11.16-.14,0,0h0Z"/>
        <path class="cls-2" d="M269.01,260.15c-.18.13-.36.31-.55.66.23-.35.41-.56.55-.66Z"/>
        <path class="cls-2" d="M246.14,255.62s-.02-.01-.03-.02c.02.36.02.3.03.02Z"/>
        <path class="cls-2" d="M270.37,254.01c-.07-.28-.18-.54-.33-.74.03.16.13.39.33.74Z"/>
        <path class="cls-2" d="M270.65,253.23c.12.15.22.25.31.35.19-.23.22-.42-.31-.35Z"/>
        <path class="cls-2" d="M269.4,252.76c.26.1.46.28.63.5-.03-.15-.03-.25.02-.29-.14-.04-.34-.09-.66-.21Z"/>
        <path class="cls-2" d="M237.45,314.9c.02.06.05.1.07.18.52-.66.32-.57-.07-.18Z"/>
        <path class="cls-2" d="M220.41,257.54s-.04-.08-.06-.12c-.02-.01-.04-.03-.05-.04l.11.16Z"/>
        <path class="cls-2" d="M221.22,259.61c-1.6-2.52-1.32-2.52-.93-2.23-1.27-1.81-2.55-3.56-3.84-5.26,1.56,2.64,3.15,5.13,4.77,7.49Z"/>
        <path class="cls-2" d="M210.93,303.57c.64-.42,1.27-.8,1.89-1.15,2.9-1,1.89-.63,4.47-1.92-3.2,1.59-3.3,1.44-3.41,1.3-.11-.14-.21-.28-3.2.46.44-.2.88-.39,1.32-.56-.07.08.27,0,.2.08,1.48-.54.41-.31-.87-.2-1.28.14-2.77.17-2.25-.34.52-.36,1.38-.55,2.01-.42-.42-.15-.84-.35-1.24-.58.15-.19,1.1-.08.96.07-.08-.29-.15-.6-.21-.93l.16.03c-.81-.27-2.03-.84-2.49-1.29.89-.35.49.42,1.19.43l-.99-1.47c.74-.07,1.38.22,1.79.63.2.2.35.43.42.65.03.11.05.22.04.33,0,.05-.01.11-.02.16,0,.03-.02.04-.04.06.67.13,1.17.11,1.53.09.36-.02.57-.07.67-.14.21-.14.02-.35-.23-.63-.51-.55-1.25-1.33.58-2.12l.39,1.27c3.17.04,2.3-1.09,4.47-1.87-1.05.05-5.32,1.32-6.32-.27.49-.26.79-.68-.1-1.63,1.88.46,1.58-.32,1.68-1.18l2.47.68c-.49-1.08-1.77-1.32-2.76-2.13.49-.94,2.47-.67,4.15-.5.8-1.51-3.36.34-3.35-1.68,1.28-1.1.5-2.29-.58-4.26,1.09-.72,1.48.54,2.27.38l-1.77-1.32c.1-.19.69.03.99.14-.59-.89-2.47-.68-2.87-1.94-2.66-.98,4.56-1.26,1.79-3.39.79-.16,1.48.54,2.47.68-1.57-2.37-1.08-1.97-3.44-4.18l1.96-.9c-2.1.49-4-1.28-5.55-2.81-.98.12-1.85.21-2.27.31l-.91-2.04c.46-.11,1.27.28,2.24.82-.18-.17-.35-.33-.52-.46,1.07-.38,2.42.29,3.7,1.08-.54.09-1.12.16-1.69.23,1.4.8,2.97,1.61,4.45,1.89-.26-.18-.45-.46-.53-.73.38.21.73.37.99.39.28,0-.23-.31-.79-.75l2.86.3-1.08-.37,2.29-1.81c-2.39-2.3-6.14-4.71-6.65-7.54,1.87,1.14,3.28.96,5.68,1.6-2.72.06.59,2.24-.26,3.43.44-.62,1.55-.18,1.9.09l-1.73-2.93c.98.27,1.38.24,1.65.09.14-.08.25-.18.38-.29.13-.09.31-.29.52-.27-3.95-.71-2.32-1.71-3.31-2.85,1.25.55,2.49,1.25,2.04,1.74,1.51.19.44-.38-.63-1.18-1.08-.76-2.16-1.75-.9-1.52-.02.21-.23.21.37.62-.49-.51-.44-.95-.16-1.11.28-.17.79-.02,1.28.46l-.02.18c.35-.41.54-1.17.33-2.3-.21-1.12-.8-2.73-2.1-4.55.33.44,3.09,4.1,3.71,4.92-2.88-4.24-5.54-9.31-8-15.21,1.03,1.9,2.91,4.57,4.61,7.3,1.71,2.71,3.25,5.4,3.78,6.71.22.17.41.28.5.16.11.01.14-.15.05-.61-.38-.52-3.38-5.11-3.25-5.36,1.55,2.03,1.91,2.56,2.3,3.04.37.47.76.88,1.88,2.56-.28-.39-1.01-1.89-1.56-3.25-.55-1.36-.88-2.57-.53-2.42.26.76,2.25,5.15,2.35,5.66-.45-1.64-.73-3.24-.83-4.8-.04.82,1.49,4.25,2.11,5.69-.4-.99.76.26.86-.18-.2-.4-.42-.81-.66-1.22.63.49.55-1.15.69-2.8.11-1.65.45-3.32,1.44-2.97-.27.89-.2,5.82.33,6.53.13-1.15.52-3.91,1.48-6.46.47-1.28,1.08-2.51,1.77-3.48.67-.98,1.54-1.69,2.04-2.02l.05,1.36,1.75-1.12c-.85,1.58-2.3,4-3.77,6.33-1.45,2.34-2.37,4.73-2.8,6.09.29,1.14-.04,1.58.47,1.58-.06,1.25-.52,1.8-.61,1.86.12.16.23.33.33.49l.14.24.59.35c.5-2.65,2.62-2.14,3.05-4.35l-1.75,1.01-.87.51-.43.25c-.14.09-.17.2-.25.3.19-2.71,3.27-7.07,5.01-6.16.22,1.16-1.5,4.56-1.67,5.44.46-.84,2.18-1.28,2.19-.6l-1.13,1.2c.77,1.24,2.56-3.04,3.14-.23.38.28.37,3.68.85,2.16.11-3.14,2.36-12.37,3.44-14.47.11.24,1.57,3.45,1.65,5.06.06,2.51-2.59,5.23-2.53,7.39.22-.7.84-1.47,1.08-1.7.28.73-.79,2.14.26,2.09.9-2.58,1.9.77,1.08-2.09,1.16-.49.85.83,1.98,1.04.14-1.79,2.71-5.46,3.92-5.9-.26.64-.31,1.58-.33,2,1.89.85,2.56,2.36,4.34,3-.05.68.55,1.73-.2,2.71.41-.37.96-1.17,1.52-1.03.26,2.6-1.33-.09-1.47,2.87.59-1.48,2.12-1.55,3.24-2.2.61-2.38-1.64-1.12-2.74-.44,1.1-3.2,3.66-6.04,6.17-6.77,1.85-.2-.11,2.29.33,1.94,2.61,1.68,4.68-4.51,6.17-1.2.09,2.38-1.67,3.94-2.08,5.45-1.52.23-1.31-2.07-2.19-2.32.21.45.43.89.63,1.36-.66.49-1.67.68-1.88-.07.04,2.07,4.56,2.28,5.84,4.92.68-.48,1.65-.84,1.73-1.76l-.8-.05c.13-1.86,2.32-1.55,1.82-2.69,1.45-.67,3.38-1.78,4.24-.24l-.93,2.28c.32-.64-.14-1.73-.86-1.26,1.08-.67.35,3.93,2.48,1.48l-.06-2c1.5-.55,4.02-2.11,4.81-.73.73-2.4-.41.08.2-2.86-1.06,3.46-3.02-1.94-3.66,1.98.73-3.38-.82-2.02-.69-5.13-.33.74-.3,1.59-1.14.7-.15.19-.4.4-.55.52-.02-.04-.03-.05-.04-.09,0,.04,0,.07.01.11-.1.09-.11.11,0,.04.08.44.09.92-.04,1.37-1.34,1.37-2.89.57-3.84,1.18-.42-.63.64-.72.69-1.65l-1.41.92c.69-1.66-.36-3.47,1.52-3.75-.42-.23-.84-.45-1.27-.66-.35-1.25-1.27-2.09-2.22-1.67-.47-.64-2.31,1.21-1.24.12l-2.45.22.14-.43c-1.96-1-5.12,1.24-6.35-2.59-.83.2-1.69.47-2.67-.36l.25-1.55c-1.03.25-2.18-2.33-3.03-.88.13-2.14-.88-2.68-2.08-2.82-1.2-.14-2.59.14-3.26-.43l-.59,1.94c-1.03-.41-2.19-.11-3.7.34l-.37,1.76c-1.48,1.13-2.55-1.97-4.37-2.22.28-.64.69-.36.91.13-.57-2.23-1.87-1.78-3.16-1.19-.13.08-.37.14-.61.2l-.68.16c-.44.1-.86.17-1.26.17-.8,0-1.51-.28-2.2-1.2-.76.5-1.25.16-1.78-.42.07.01.13,0,.18-.06-.08-.04-.19-.07-.3-.09-.33-.39-.69-.84-1.09-1.23.35.53.67.97.93,1.2-.57-.09-1.42-.06-2.19.23l-.63-2.12c-.07.01-.13,0-.2,0-1.01-.96-.52.81.14,2.45-.36.24-.65.56-.83,1-.63-1.74-1.14-1.59-1.62-1.46-.5.13-.97.23-1.99-1.71-.01,1.66-3.74.36-2.26,4.22-.26-.52-.58-.81-.21-.75-.98-.63-2.08-1.29-2.17-.33l-1.94-2.99c.08,1.07.23,2.15.47,3.26l.1.32c-1.34-.8-2.14-1.18-3.24-4.56.72,3.12.8,3.89.89,4.68.09.76.17,1.53,1.05,3.96l-1.22-1.64c-.08.43.23,1.46.42,2.25.19.79.26,1.36-.34,1.03-1.44-.45-2.11,1.8-2.83,4.37-.36,1.29-.74,2.67-1.27,3.98-.26.65-.57,1.29-.93,1.9-.18.3-.38.6-.59.89-.21.27-.46.64-.67.75,4.68.49-2.41,1.03,1.06,2.03-1.12-.07-1.84.23-2.63-.53.63,1.94-2.33,2.1.34,4-1.12-.08-1.48-.75-2.16-.74.2.19.8.77.11.78-.68.01-.84-.47-1.24-.85-.25,1.76,3.01,2.76,6.07,3.66-1.68.5-1.58.99.29,2.13-1.09.05-2.27.29-2.37-.87-.3.56-2.4,3.3.07,3.98-.68.03-.39.79-.15,1.02-.48,1.31-.74,1.37-.83,2.75l.5-.27c2.86,1.27.39,1.27.49,2.42l-.3-.11c-2.77,1.91.77,1.31-2.29,3.11l1.89.33c3.95,1.22-2.89,1.55-1.71,3.33l1.19-.24c1.18,1.11-5.98.78-6.67,1.42-.39.08-.49-.4-.69-.7-2.86,1.42,2.37.87,2.57,2.51-1.38-.05-3.26-1.19-3.75-.24-1.19.24,3.54,3.99.67,4.74,1.09-.05,2.18-.1,2.76.79,0,.15-.04.26-.17.44-.13.2-.31.4-.52.61-.42.42-.94.88-1.39,1.37-.88.97-1.43,2.12.08,2.85-.34.19-.64.27-.91.28.57,1.24.5,3.85,2.27,4.11-3.7,1.14-3.33,3.01-2.76,4.29.56,1.33,1.32,2.17-2.24,3.81l-.54,3.51-.73.33c-.13.35-.26.67-.28.91,1.85.42,4.03-.34,6.04-1.14.06.45-.91.79-1.3,1.02,2.04,1.8,3.11,1.8,8.1-.05l-1.24,1.73c.81-.38,1.39.57,2.59,1.53,1.15.95,3,1.95,5.17,1.31-.12.2-.34.54-.73.73,1.22-.29,2.23.02,3.24.58.24.14.53.3.73.45.17.14.32.29.48.44.31.3.61.61.91.88,1.2,1.08,2.36,1.5,3.66-1.9l2.14-1.33c-2.12-1.07,1.03-2.98.37-4.36.96-.21,1.79,2.63.63,2.75l-.09-.39c-1.22,3.58,2.51,1.92,1.92,4.41,4.51.77,8.58,3.64,12.96,4.42l-.08-2.97,1.47.39c.3.72.22,2.35-.84,2.07.34,1.74,2.02-1.14,2.12-1.76,1.98,1.44-1.26,3.28-.63,3.43l.93-.1-.16-.36c.87-1.1,1.08-2.34,2.37-2.04.77.66.23,1.84.55,1.98-.02.21.08.31.5.13l1.93.44-.57-2.38c.96-1.05,1.79.29,1.14-2.4.47,2.07,2.26,2.55,4.01,2.67,1.77.07,3.46-.19,3.87.43,1.25-1.7,2.41-1.64,3.92-1.49-.39-.46-.66-3.05.59-2.79-.13,2.69.48,3.24,1.29,3.6.81.37,1.8.5,2.52,2.36-1.18-2.45,3.76-1,1.83-4.46,1.13.3.3,1.99,1.31,3.12,1.21-1.25,2.68-1.06,4.37-.94.84.07,1.72.2,2.6.18.88-.06,1.77-.23,2.57-.65-.17-.68-1.03-1.55-.65-2.75.93.97,1.89,1.84,2.91,2.71.59-.59-.86-4.02,1.25-2.22-.4-.48-.98-1.21-.65-1.58.95.09,1.85-.09,2.73-.32.44-.12.86-.27,1.28-.44.41-.2.81-.43,1.2-.67.77-.5,1.54-1,2.23-1.64l2.03-1.95c.66-.66,1.25-1.41,1.93-2.05l1.02-.97c.33-.34.67-.67,1.03-.98.36-.32.75-.62,1.17-.91.21-.15.42-.29.64-.43.2-.15.41-.3.63-.44.88-.58,1.9-1.11,3.12-1.61-1.75.29-1.48-.4-1.16-1.12-.53.3-1.53-.8-2.43-1.15,1.19-.49,2.4-1.05,3.64-1.69-.56-.38-.77-.76-.8-1.13-.04-.38.04-.76.14-1.13.2-.74.4-1.46-.77-1.96l.17,1.01c-1.24-1.03-2.96-1.08-4.78-1.19-1.82-.08-3.73-.23-5.51-.96,1.42,1.04-.06,1.22-1.29,1.38-.63.08-1.17.2-1.4.46-.23.26-.06.73.79,1.68-.83-.13-.92-.87-1.77-1.18.62.57.94,1,.97,1.34.04.34-.21.57-.77.66l-.27-.31c-.26.49-.58.86-.93,1.13-.33.29-.82.39-1.26.52-.47.1-.91.2-1.45.27-.55.05-1.12.11-1.71.24l1.26,1.41c-.55.14-1-.3-1.48-.57.54,1.35.89,1.19,1.26,1.04.34-.18.73-.34,1.45,1.11-1.43-1.26-2.25-.82-3.09-.37-.39.24-.88.37-1.37.26-.49-.12-1-.52-1.56-1.46-.73.34,1.14,1.88.37,2.24l-.69-1.01.38,1.49c-.66-.02-1.46-1.3-1.83-2.23.17.06.25-.4.34-.52-.58-.53-.97-.25-1.28.13-.33.37-.62.8-.8.62l1.02.47c-.98.85-2.29,1.17-3.66,1.47-.34.09-.67.18-1,.3-.34.1-.68.22-1,.37-.66.3-1.26.78-1.85,1.45l.31.87c-.93.92-1.38.71-1.84.4-.47-.32-.94-.71-2.06-.29l.07-.22c-.4.91-1.01,1.39-1.64,1.32.53-1.07-1.13-1.98-.42-3.18-2.2,1.8-1.06,1.4-2.59,4.73l-.34-1.48c-.54,1.35-.6,2.04-1.82,2.39,1.01-1.24-.68-2.29.45-3.93-1.16-1.67-2.06-.85-2.85-.29-.78.58-1.4.98-1.78-1.42-1.44,4.02,1.97,2.42,1.28,3.25.47,1.38-1.15,3-1.93,2.53-.82-.14-.94-5.35-2.89-5.46.19.04.24-.27.43-.23-.62-1.11-1.6,1.27-2.31-.54-.81,2.4-1.15-.29-1.71,2.83l1.93-.5c-1.12.68-2.61,4.27-4.12,2.22.23-.61.86-1.37,1.28-1.78-.37-1-1.06.47-1.44-.56.6-3.11,2.33-.35,3.74-2.63-.35-1.39-2.37,2.02-1.36-1.32-1.39,4.21-1.84-.83-3.68,2.27l.38-1.86c-.26.27-.84,1.08-1.22.96l1.1-2.31c-1.42,1.89-1.76-2.16-2.97-1.21,2.16.31.09,2.33.77,3.86-3.15,2.04-.68-5.16-3.81-4.81.45-.19,1.3,1.41.5,2.15-.5-.49-1.11-1.34-1.26-2.4-2.05-.02-.08,1.98-1.15,2.95-.22-2.41-1.17.72-2.21,1.26l.39-1.89c-2.02-1.7-1.45,3.8-3.2,1.89l1.45-2.42-1.22.44.7-2.09c-1.51,1.34-1.79.83-2.79-.03-.04,1.39-.94,3.38-1.98,3.2-.43-1.28.81-1.69-.69-1.77.61-1.1,1.31-2.48,1.52-.61.21-.6.6-1.1.8-1.69-.43-1.45-1.78-.73-2.31-.84.18.12.39.28.45.57l-1.35,1.05-.68.52c-.22.18-.48.34-.61.54.03-.74.28-1.28.58-1.79-.27.15-.6.98-.97,1.06.57-1.47,1.11-3.01,1.5-3.67-.3.52-.67,1.03-1.12,1.51.19-.65.5-1.81.83-2.32.12-.45-.32.23-.92.82-.57.6-1.32,1.12-1.11.54-.24.25-.5.49-.77.65-.11-.21.15-.74.19-.99.03-.26-.15-.25-1.52.51.86-.75,1.78-1.48,2.76-2.19-.45.21-1.41.88-2.37,1.6-.98.72-1.96,1.49-3.05,1.75-.74.2-.4-.09.32-.54,1-.62,2.56-1.5,3.12-1.9-.83.42-2.08.97-2.74,1.1-.67.14-.75-.15.64-.98.57-.09.06.25.26.29ZM211.71,295.27c.31.41,1.37,1.33.21,1.28-2.06-.89-.96-.91-.21-1.28ZM213.3,269.73c.56.39.17.67-.64.89-.08-.33.07-.65.64-.89ZM264.58,252.17s-.04.04-.07.07c-.42-1-.28-.62.07-.07ZM265.72,253.58c.26-.18.36-.43.41-.7-.3.4-.65.29-.97,0-.1.51-.05.91.56.7ZM240.59,328.36l-.25-.53c.74-.48.5,0,.25.53Z"/>
        <path class="cls-2" d="M215.17,273.14c-.34,0-.69-.05-1.05-.12.28.2.65.29,1.05.12Z"/>
        <path class="cls-2" d="M214.11,304.25s0,.01,0,.02c.1-.12.18-.21.26-.29l-.26.27Z"/>
        <path class="cls-2" d="M238.42,261.3c-.21-.35-.28-.73-.28-1.11-.14.45-.12.87.28,1.11Z"/>
        <path class="cls-2" d="M275.05,254.63c-.4-.04-.8-.09-1.2-.11.51.16.47.64.55,1.04.2-.4.34-1.08.65-.93Z"/>
        <path class="cls-2" d="M276.05,269.52c.25-.11.25.15.51.05l.52-.73c-.52-.32-1.29.02-1.03.69Z"/>
        <path class="cls-2" d="M272.7,260.68c-.75,1.44.07,1.28.84,1.39-.04-.02-.08-.03-.11-.06,1.36-1.83.3-1.59-.73-1.32Z"/>
        <path class="cls-2" d="M273.72,262.11c.23.04.44.13.58.31.55-.72-.12-.32-.58-.31Z"/>
        <path class="cls-2" d="M268.04,253.48c.13.53,1.09-1.78.99-1.1,1.24-1.7-3.18,1.26-.99,1.1Z"/>
        <polygon class="cls-2" points="270.47 265.58 271.28 263.73 270.14 264.93 270.47 265.58"/>
        <path class="cls-2" d="M266.52,261.73l.7,1c.14-.31.35-.42.57-.47-.56-.37-1.03-1.07-1.28-.53Z"/>
        <path class="cls-2" d="M267.8,262.26c.29.2.6.31.93.11-.18-.07-.57-.2-.93-.11Z"/>
        <path class="cls-2" d="M268.92,265.36l-.07-.52c-.19-.17-.39-.34-.59-.49.23.32.44.67.65,1.02Z"/>
        <path class="cls-2" d="M256.02,256.74l-1.3.13c-.35.6-.2,1.11.31,1,.43-.35.93-.45,1-1.13Z"/>
        <path class="cls-2" d="M257.26,263.13c-.13-.5.02-.92.11-1.6l-.96,2.29.85-.69Z"/>
        <path class="cls-2" d="M253.99,262.46c-.35.6-2.22,1.3-.84,1.63.35-.6,1.6-.75.84-1.63Z"/>
        <polygon class="cls-2" points="238.52 254.25 238.81 254.3 239.83 250.36 238.52 254.25"/>
        <path class="cls-2" d="M225.28,261.01c.49,1.11-.15-2.61.41-1.24.11-.96-.48-1.13-.41-1.97-.31.97-.51.34,0,3.2Z"/>
        <path class="cls-2" d="M225.29,257.81c.05-.15.11-.34.17-.6-.11.24-.15.43-.17.6Z"/>
        <polygon class="cls-2" points="296.85 305.35 298.01 304.48 296.48 304.79 296.85 305.35"/>
        <path class="cls-2" d="M294.6,302.4l2.58.43-1.04-.63-.52-.31-.26-.15-.13-.08-.07-.04-.03-.02h-.02s0-.01,0-.01h0s0,0,0,0l-6.82,5.33h0s0,0,0,0h0s6.81-5.33,6.81-5.33h0s0,0,0,0h0s0,.02,0,.02v.03s.01.06.01.06c0,.04,0,.08.01.12,0,.09,0,.18-.03.26-.05.17-.19.3-.5.31Z"/>
        <path class="cls-2" d="M217.39,294.14l-.59-.22c-.69-.03-.79.16-.99.54l1.58-.32Z"/>
        <path class="cls-2" d="M213.69,300.92l.07-.05c-.83.11-1.67.25-2.52.4l2.45-.35Z"/>
        <path class="cls-2" d="M216.83,300.79s-.05.02-.17.09c-.14.08-.3.16-.24.11.16-.08-.1.08-.42.28-.64.41-1.5.98.82-.48Z"/>
      </g>
      <g>
        <path class="cls-2" d="M344.98,206.48c.45-1.69-1.31-1.32-1.57-1.62-.14,2.84,2.01,1.63,1.57,1.62Z"/>
        <path class="cls-2" d="M336.62,232.93l-.13-.83-.88,2.05-1.07,1.98,1.11-1.56c.35-.53.65-1.1.97-1.64Z"/>
        <path class="cls-2" d="M308.38,251c.5-.41.19-.96-.69-1.62-.44-.33-1.02-.69-1.72-1.08.04-.28.04-.59-.05-.91,1.98-.63,4.22-1.62,6.76-2.54,2.57-1.02,5.55-1.97,8.44-2.69l2.33-.11c.18-.87.41-1.83.86-2.8-.84.35-1.71.71-2.58,1.08-.93.35-1.87.72-2.83,1.08-.92.36-1.86.73-2.8,1.1-.93.35-1.87.7-2.81,1.06-.91.34-1.82.69-2.72,1.03-.87.31-1.73.62-2.58.92-.84.29-1.67.58-2.48.87-.77.24-1.53.48-2.26.71.14.32.25.62.32.92-.05.06.18.17.36.26l.51.28c.33.18.65.37.97.54,1.23.71,2.24,1.34,2.98,1.91Z"/>
        <path class="cls-2" d="M324.02,267.96c-.33-.86,1.31-.08,1.39.04.19.05-.98-.54-7.05-4.36.44.45.53.6.78.88,1.07.71,2.5,1.7,4.89,3.44Z"/>
        <path class="cls-2" d="M319.13,264.52c-2.6-1.74-2.04-1.07-1.08-.28.97.79,2.27,1.67,1.08.28Z"/>
        <path class="cls-2" d="M332.48,276.07c-.43-.35-.82-.7-1.26-1.03l-1.4-.92c-.06.47.35,1.24.58,1.84.18.63.27,1.06-.18.79,2.08,2.21,2.37,1.44,2.26-.68Z"/>
        <path class="cls-2" d="M335.85,277.63c-.37-.45-.73-.89-1.2-1.28-.03.2-.01.4.17.6.17.21.46.44,1.02.68Z"/>
        <path class="cls-2" d="M331.9,273.86c.53.36.95.79,1.39,1.21l1.36,1.27c.14-.63.87-1.2-1.18-1.22.43-.11.38-.2.06-.39-.33-.18-.88-.47-1.63-.87Z"/>
        <path class="cls-2" d="M330.94,271.99c-.3-.96-.96-1.89-1.03-2.42-.09-.52.31-.6,1.94.35-.33-.28-.63-.55-.91-.79-.14-.12-.28-.23-.41-.34-.14-.11-.23-.17-.48-.4-.82-.76-1.63-1.29-2.25-1.7-.6-.42-1.19-.63-1.55-.74-.37-.11-.56-.08-.56.06,0,.15.18.42.55.81.35.4.81.97,1.47,1.64.34.33.65.73,1.03,1.15.22.24.46.51.71.8.44.47.98.97,1.48,1.58Z"/>
        <path class="cls-2" d="M316.45,252.11c-.59-.67-1.11-1.26-1.57-1.84l-2.55-.87-1.31-.46-.66-.23c-.15-.04-.13-.07-.16-.09l-.08-.08s.04.09.07.14c.16.07.32.15.48.23.32.16.63.34.93.53.61.38,1.2.81,1.79,1.21,1.17.81,2.28,1.53,3.08,1.47Z"/>
        <path class="cls-2" d="M336.33,294.75c.61.21,1.58-1.1,2.35-1.39-.28-.82-.47-1.66-.8-2.43-.32,1.29-.68,3.68-1.55,3.82Z"/>
        <path class="cls-2" d="M338.67,293.36l.59,1.88c.17.64.26,1.31.4,1.98.07-.88.17-1.59.09-2.13-.06-.54-.15-.93-.25-1.21-.21-.55-.51-.64-.84-.52Z"/>
        <path class="cls-2" d="M338.93,276.71l-1.21-1.2c-.43-.38-.91-.72-1.35-1.08l-1.32-1.04-.65-.51-.73-.45c.27.19.57.37.81.58l.73.63,1.51,1.3c.25.22.52.43.76.67l.67.73,1.37,1.49-.6-1.12Z"/>
        <path class="cls-2" d="M334.16,309.13l-.85-2.51.58,2.18.29,1.11.2,1.13c-.03-.65-.09-1.29-.21-1.92Z"/>
        <path class="cls-2" d="M331.18,319.01c-.24-1.01-.91-.64-1.51-.28-.62.34-1.19.68-1.18-.24-.44,1.24-.62,2.52-.76,3.71-.16,1.17-.18,2.38-.27,3.48.29-1.06.67-2.13,1.31-3.19.59-1.09,1.37-2.23,2.41-3.49Z"/>
        <path class="cls-2" d="M326.9,329.29c.35-1.04.42-2.32.56-3.61-.34,1.1-.5,2.32-.56,3.61Z"/>
        <path class="cls-2" d="M338.59,303.95c-.43.25-1.37.66-2.34,2.79l2.05-1.21c.14-.48.18-1.02.29-1.57Z"/>
        <path class="cls-2" d="M338.36,305.48l-.07.05c-.46,1.71-.78,2.9-.91,3.41.12-.44.42-1.47.98-3.45Z"/>
        <path class="cls-2" d="M338.65,303.56c-.02.15-.04.25-.07.4.19-.12.26-.21.07-.4Z"/>
        <path class="cls-2" d="M340.84,286.89c.61,1.05,1.35,2.78,2.04,3.66.35.44.61.68.93.48.34-.21.57-.83.76-2.13-.7-.81-1.16-.46-1.68-.37-.52.1-1.12-.05-2.05-1.64Z"/>
        <path class="cls-2" d="M341.07,301.89c.42-1.45.57-2.89.81-4.34-.46.07-1.16.79-1.56-.4.27,1.54.68,3.11.75,4.74Z"/>
        <polygon class="cls-2" points="341.28 304.14 341.07 301.89 340.68 303.5 341.28 304.14"/>
        <path class="cls-2" d="M331.72,323.68c-.08.99-.33,1.96-.68,2.95-.35.99-.88,1.93-1.38,2.97,1.52-1.96,2.88-4.19,3.87-6.49-.35-.55-.81-1.91-1.82.57Z"/>
        <path class="cls-2" d="M335.55,315.08c0,.14-.04.31-.04.44.22-.21.32-.4.04-.44Z"/>
        <path class="cls-2" d="M314.97,345.4c.15.02.3.06.46.08-.03-.1-.07-.19-.09-.29l-.37.21Z"/>
        <path class="cls-2" d="M333.99,322.85c.53-.82.83-1.53.95-2.2.12-.68.09-1.29.04-1.9-.18.7-.36,1.44-.6,2.16-.26.72-.54,1.45-.85,2.2.16.24.29.34.46-.27Z"/>
        <path class="cls-2" d="M324.17,334.63c.86-.47,1.67-1.17,2.57-1.89-1,.42-2.68,1.41-2.57,1.89Z"/>
        <path class="cls-2" d="M334.87,316c0-.1,0-.19.01-.3-.53.48-.34.47-.01.3Z"/>
        <path class="cls-2" d="M334.87,316c-.05,1.03.03,1.88.12,2.75.3-1.14.51-2.23.53-3.22-.19.19-.43.36-.64.47Z"/>
        <path class="cls-2" d="M313.84,358.51c-.16-.83.93-2.07,2.53-3.4.41-.32.85-.64,1.34-.94.47-.32.96-.64,1.5-.93.53-.29,1.1-.54,1.67-.79.57-.26,1.16-.49,1.78-.68.81-.93,1-1.81.79-2.55-.2-.74-.8-1.35-1.62-1.85-.81-.49-1.85-.89-2.98-1.23-1.13-.34-2.27-.53-3.4-.67.14.32.3.61.04,1.2-.26.58-.9,1.53-2.58,2.93.43,0,1.24-.15,2.17-.39.9-.28,1.94-.6,2.85-.84,1.76-.57,3.13-.75,1.98.96-1.09,1.09-2.03,1.65-2.7,2.08-.69.42-1.22.56-1.68.61-.93.09-1.57-.12-3.06.13,1.56.35.18,1.81-1.45,3.47-.83.78-1.71,1.61-2.25,2.39-.55.75-.76,1.44-.18,2.02.87-.45,1.68-1.01,2.52-1.51.83-.5,1.63-1.05,2.42-1.62.3.36-1.32,1.91.32,1.6Z"/>
        <path class="cls-2" d="M321.56,340.75c.36-.43.73-.85,1.06-1.32-1.54,1.16-2.98,1.67-5.61,2.2-1.63,2.19-1.8,3.03-1.67,3.55,2.28-1.48,4.48-3.1,6.48-4.99l-.25.56Z"/>
        <path class="cls-2" d="M327.45,333.53c.3,1.02.02,2.56-.08,3.65-.08,1.09.13,1.86,1.73,1.39,3.17-4.44,1.07-3.93,2.17-6.97-2.12,3.73-2.02,3.04-1.84,2.07.13-1.02.29-2.26-1.78-.07.37-.71.67-1.45,1.01-2.1.33-.67.71-1.25,1-1.89-.44.62-.97,1.13-1.44,1.66-.5.51-.95,1.04-1.48,1.47.07-.04.13-.06.2-.09l.02-.03s0,.02.02.02c.38-.16.55-.18.22.07,0,.03-.05.12-.07.16.17.18.25.42.32.67-1.67,1.7-.58.03-.32-.67-.05-.07-.08-.17-.15-.22-.01,0-.02,0-.04.01-.67,1.15-1.28,2.39-2.03,3.48-.37.56-.71,1.15-1.1,1.69l-1.19,1.62c.64-.56,1.39-1.16,2.14-2.13.38-.48.8-1.02,1.27-1.62.44-.62.9-1.36,1.42-2.15Z"/>
        <path class="cls-2" d="M348.61,293.49c-.14.3-.27.29-.39.31.23.61.38.84.39-.31Z"/>
        <path class="cls-2" d="M347.52,297.35c-.23-.69-.75-1.27-.69-3.43.46-1.9.83-.01,1.39-.11-.5-1.37-1.38-4.53-2.09-.43l.26.64c-.06.46-.14.93-.24,1.4-.12.47-.31.95-.48,1.42-.35.93-.74,1.8-1.11,2.54-.69,1.46-1.51,2.35-1.56,2.03,1.75-.85,2.81-1.63,4.52-4.05Z"/>
        <path class="cls-2" d="M339.92,317.68c-.56,2.49-1.19,4.96-1.97,7.39.95-.99,1.98-1.98,2.88-3.05l-.91-.14c1.88-3.98.48-3.47,0-4.21Z"/>
        <path class="cls-2" d="M313.88,345.07c-.08-.67-.17-1.32-.28-1.98l-.84,2.05c-.3.69-.66,1.34-1,2.02l1.1-1.02c.36-.34.69-.73,1.03-1.08Z"/>
        <path class="cls-2" d="M306.42,349.05l-.29-1.59c-.56.58-1.14,1.15-1.76,1.68h1.04s1.01-.09,1.01-.09Z"/>
        <path class="cls-2" d="M163.92,195.95l.13-2.39c-.13,1.11-.16,1.84-.13,2.39Z"/>
        <path class="cls-2" d="M168.59,222.23l.49-.65c-.58.24-.85.49-.49.65Z"/>
        <path class="cls-2" d="M171.49,376.35c-.63,1-1.03.87-1.47,1.01-.43.09-.81.1-1.09.11-.55,0-.69.02.1.55.53.28,1.06.52,1.61.73-.04-.48.01-.81.14-1.1.06-.14.15-.27.25-.4l.08-.09s.08-.18.12-.26c.09-.19.18-.37.27-.55Z"/>
        <path class="cls-2" d="M108.35,307.27c-.29.25-.6.51-.91.77.21,1.01.44,1.87.69,2.58.02-.94.1-2.07.22-3.34Z"/>
        <path class="cls-2" d="M102.72,302.2l1.41-1.85.18-.23.22-.34.45-.69.89-1.34c-.46.56-.98,1.28-1.58,2.2-.5.69-.99,1.36-1.57,2.25Z"/>
        <path class="cls-2" d="M137.05,134.57c-.28-1.31-.53-2.73-.76-4.25-1.91,7.71-.06,3.95.76,4.25Z"/>
        <path class="cls-2" d="M223.87,391.4c-.9.8-1.31,1.25-1.53,1.83.54-.1,1.22-.26,1.63-.59.41-.32.53-.77-.1-1.24Z"/>
        <path class="cls-2" d="M180.17,206.91c.04-1.47-.15-2.15-.54-2.21-.07,1.51.05,2.4.54,2.21Z"/>
        <path class="cls-2" d="M220.93,394.6c.25.24.47.39.73.6.14-.04.27-.08.42-.11,0-.74.04-1.34.25-1.86-.51.11-.88.16-.93.74-.24,0-.38.19-.48.63Z"/>
        <path class="cls-2" d="M313.07,113.83c-.13.22-.24.5-.39.69.21.13.3-.2.39-.69Z"/>
        <path class="cls-2" d="M344.48,181.83c-.4-.7-1.04-1.83-1.65-2.91.11.28.28.65.54,1.13.25.48.68,1.03,1.11,1.78Z"/>
        <path class="cls-2" d="M269.68,352.2c2.06.02.34-.17,0,0h0Z"/>
        <path class="cls-2" d="M279.59,359.45c-.45.19-.8.44-.86.84.18-.42.48-.68.86-.84Z"/>
        <path class="cls-2" d="M204.89,401.74c-.06-.02-.11-.03-.18-.05.34.44.29.36.18.05Z"/>
        <path class="cls-2" d="M272.73,353.19c-.76-.26-1.64-.5-2.61-.69.42.16,1.2.38,2.61.69Z"/>
        <path class="cls-2" d="M272.36,352.34c.71.13,1.25.18,1.78.25.27-.29.06-.45-1.78-.25Z"/>
        <path class="cls-2" d="M266.8,352.05c1.18.08,2.28.27,3.33.45-.4-.14-.56-.25-.44-.3-.6,0-1.46-.06-2.88-.15Z"/>
        <path class="cls-2" d="M249.41,71.57c.16.1.37.18.53.3,1.71.05,2.26.04,2.01-.03-.24-.07-1.27-.18-2.55-.27Z"/>
        <path class="cls-2" d="M142.43,376.79c-.02.15,0,.23,0,.37.06-.15.13-.34.18-.48l-.18.11Z"/>
        <path class="cls-2" d="M143.64,366.6c.32.95.52,1.77.61,2.51.09.76.12,1.28-.06,2.31-.3,1.8-.87,3.37-1.58,5.26,2.05-1.33,4.03-2.38,5.94-3.15-.82-1.13-1.56-2.62-2.42-3.61l-2.49-3.31Z"/>
        <path class="cls-2" d="M173.29,156.29l-2.86,5.02c-.32-2.66-.24-4.96-.19-6.55l-.37,2.46c-.26-.59-.47-.6-.74-.62-.14,0-.31.04-.53.09-.11.04-.22.04-.36.11-.13.08-.29.18-.47.29.03,0,.06,0,.1.02l.43-2.83c4.88,2.25-4.74,21.06.31,23.12l-2,3.28c.31-1.01.04-1.25.34-2.24-4.25,6.29,2.53,6.09-.44,14.82-1.18,3.01-2.48,4.98-2.58,2.71l-.42,7.25c-.6,1.99-1.4,1.27-.8-.71l-1.64,7.9-1.87,9.01,8.23,1.62c.68.13,1.23.27,1.76.43l-.1.13c.07-.03.15-.06.3-.07l5.31-16.43c-.88.22-2.17.42-3.48.58l-9.29,1.14.57,4.16c.17,1.25.3,2.52.36,3.36-1.43,2.49-.22-1.49-1.05-.96l-.18,6.16c-1.96,2.04-2.08-3.13-.87-7.12-6.62,4.15.12,5.18-5.9,16.2l.71-5.69c-3.88,2.81-3.87,7.39-7.29,13.17,1.34-1.24,7.81-11.32,7.54-4.65-.84,1.69-1.62,4-1.41,7.69-1.88-.44-2.26,3.02-3.19,7.23l-2.41-.9c-.41,4.7.94,4.66,1.4,7.6-1.5,4.98-3.69,5.54-5.6,6.33-2.41,7.97,4.47-4.8,2.56,4.86-2.62,6.47-2.79,11.44-3.3,19.84-2.03,4.48-1.31-1.2-2.44.31l.53,2.6.37-1.16c.16.37.32.78.44,1.17-.27.4-.73-.11-.97-.3,0,.72.48,1.11.87,1.62.19.25.37.54.4.88.04.37-.07.77-.48,1.19.22.76-.27,1.04-1.02.9-.76-.14-1.74-.76-2.85-1.57l-1.59,6.33s.03,0,0-.04c-.02-.04-.03-.08-.03-.13.03-.05-.02-.3,0-.44l.11-1.27.22-1.67c.09-.65.19-1.3.3-1.94l.17-1.05h0s0-.02,0-.03l-.07-.05c-.12-.08-.28-.16-.45-.25-.34-.18-.73-.36-1.12-.54-.78-.35-1.61-.68-2.45-.93-.84-.26-1.7-.44-2.56-.53-.52-.04-1.03-.07-1.53-.11-.62-.04-1.22-.03-1.8,0-1.15-.67-.85-1-.27-1.29.57-.29,1.42-.54,1.1-1.14-4.97-.57-7.97-.92-10.39-1.2-2.26-.25-3.91-.4-6.12-.52-.11,1.18-.66,3.89-1.33,7.58-1.56,2.19-3.22,4.61-4.98,7.25,2.23-2.72,2.79-1.37,2.88,1.03.02.61.01,1.28-.02,2-.02.35-.04.71-.05,1.09-.01.33-.02.68-.03,1.03-.05,1.39-.17,2.9-.3,4.37,1.55-1.25,2.9-2.3,3.65-3.08l-1.12,4.31-.77,3.51c-.77.73-1.45.08-1.97-1.4-.02.57-.01,1.09.03,1.48-1.07,1.28-1.9,1.68-2.51,1.39-.61-.28-.97-1.26-1.18-2.58,1.02-1.08,2.02-2.04,2.97-2.87-.25-1.38-.58-2.67-1.04-3.66-.45-.99-1.03-1.68-1.81-1.77.03.67-.14,1.71-.55,2.99-.11-.8-.35-1.21-.68-1.09-.31.03-.35,1.56-.48,3.49-1.28.57-2.61,1.24-3.99,2.04.29.28.58.55.88.82-2.84,5.04-5.85,10.5-9.04,16.36-.1.81-.18,1.57-.23,2.29,7.49.42,14.06.38,20,.41,2.96.01,5.83.06,8.55.18,2.54.08,5.28.31,8.29.78-3.68,1.24-1.51,3.14-2.28,5.51-1.42-1.71-3.97-2.05-6.96-2.24-3.74-.38-9.15-.9-13.71-2.31,4.74,1.47,2.99,2.25,1.28,2.25l9.62,1.17,2.22.25,1.55.08,3.1.16c-.76,1.9,2.14,2.1,5.02,3.68-1.37-4.46,9.46-.42,14.54-.36-.04,1.39-1.5,2.39-7.28.62,5.52,4.48,10.3-2.22,13.39,1.21-.97-.22-1.41-.54-2.07,0,1.31-.28,3.4.2,4.69.77,1.31.58,1.67,1.22.47,1.52l-.86-.19c.62.23,1.37.45,2.13.7-.24.84-.47,1.73-.68,2.63-.42,1.8-.77,3.69-1,5.59l-.04.36-.09.58c-.06.39-.12.77-.18,1.15-.11.76-.21,1.49-.29,2.2-.16,1.42-.27,2.73-.29,3.87-.04,2.29.24,3.93.97,4.49-.45-.01-3.67-2.24-4.19-2.98l3.44,9.86c1.06,3.62,2.34,6.39,3.91,8-.73-.08-1.82.21-3.06.7-1.24.49-2.65,1.2-3.98,1.73-2.64,1.04-4.92,1.29-4.28-4.7-.64,1.72-1.37,3.71-2.03,6.17-.66,2.45-1.25,5.39-1.53,8.65.54-1.32,2.15-3.39,3.52-4.62,1.38-1.24,2.56-1.76,2.4-.57-1.34,2.14-2.27,3.78-2.73,4.16,1.33.91,2.28,1.35,3.52,1.98.63.32,1.35.69,2.3,1.22,1.02.57,2.28,1.27,3.94,2.2-1.65-.73-.5-1.79,1.41-2.56.95-.38,2.08-.7,3.2-.85,1.13-.15,2.24-.14,3.33.17-.46.24-.79,1.32-1.22,2.35-.43,1.03-.99,2-2.15,1.96,1.35-.05,2.64-.11,3.86-.2.15-.01.32-.02.44-.04l.32-.07c.22-.04.4-.09.66-.13l1.73-.15c2.25-.21,4.25-.49,6-.82-1.33.09-1.45,1.04-.71,2.26.37.61.96,1.3,1.7,1.97.75.67,1.63,1.33,2.49,1.88-1.17-.92,5.06.92,10.26,2.29.58-2.2,1.08-4.24,1.26-5.49-.69,1.47-1.37,2.87-2.03,4.2l-.55-.23c.18.05.35.1.5.14.99-3.47,1.43-6.58,1.5-9.23.08-2.66-.19-4.89-.52-6.92-.33-2.04-.71-3.88-.85-5.82-.06-1-.09-1.89,0-2.92.09-1.02.28-2.14.62-3.4.59,1.46,4.79,4.43,6.63-.62-.82-1.47-2.85-4.77-4.62-8.88-.87-2.1-1.75-4.11-2.13-7.15-.41-2.93-.45-6.43-.04-9.88.56-.43,1.11-.81,1.64-1.14l.55-5.3.15-1.38.02-.17v-.09s.05,0,.07,0l.26.02.52.04,2.12.16c-.46.3-1.03.66-1.67,1.08l-.22.15c-.07.06-.18.05-.12.33.04.41.08.84.12,1.28.09.83.18,1.7.27,2.6.38,3.49.89,6.96,1.5,9.88.61,2.93,1.35,5.32,2.08,7.06.1.18.17.49.23.79.07.29.13.59.2.87.12.57.24,1.14.36,1.68.22,1.09.41,2.1.54,3.01.99-1.8,1.43-1.97,1.79-2.42.18-.22.34-.52.54-1.11.1-.3.21-.67.33-1.16.04-.17.09-.36.14-.57.03-.12.05-.26.09-.4.68-.19,1.04.32,1.26.79l.04.09s.01.03.02.05v.13c-.01.18-.03.36-.04.54-.03.37-.06.74-.11,1.09-.09.71-.19,1.37-.28,1.79l1.03-3.3.03-.1v-.03s.04-.05.04-.05l.05-.1.1-.2.2-.39c.26-.51.51-.96.75-1.35-1.12-1.07-1.47-2.47-1.65-4.27-.07-.29.05-.27.12-.35.08-.06.16-.12.24-.18.16-.12.31-.25.43-.4.24-.31.37-.71.06-1.37-.56.09-1.07.2-1.52.32l-.33.09c0,.2,0,.43.01.64l.05,1.24c.08,1.6.22,2.97.41,4.13-1.23-.63-2.72-2.53-3.36-6.23-.16-.91-.28-1.92-.33-2.99-.03-.54-.04-1.09-.04-1.65v-.42c.01-.06-.01-.17.03-.18l.12-.02c.16-.02.34-.04.52-.05.72-.04,1.55,0,2.46.14.46.07.93.16,1.41.28l.73.19.37.11.09.03h.04s-.03,0-.03,0l-.13-.02c-.09.05-.18.1-.27.17-.04.03-.09.07-.13.11.03.06.05.11.07.17.06.23.04.47-.05.71-.08.25-.28.48-.41.74.16.34.46.72.91,1.14.22.21.48.43.77.65.11.06.07.09.07.13l-.02.11-.04.21c-.04.28-.08.55-.1.8-.04.5-.01.92.08,1.17.03-.11.12-.21.25-.29.07-.04.14-.08.23-.11,0,0,.04,0-.01-.01l-.15-.05-.29-.1c-.2-.06-.4-.13-.6-.2-.4-.13-.81-.26-1.23-.4-.21-.07-.42-.13-.63-.2.01,0,.11,0,.16,0,.13,0,.26.02.39.03.26.02.53.05.81.08.55.06,1.13.13,1.7.22,1.14.17,2.25.38,3.13.61.22.06.42.12.61.17-.68-.16-1.29-.3-1.83-.43-.3-.07-.58-.13-.83-.18.03.02.05.04.07.06.04.04.05.08.05.12l-.2.04-.1.02h-.02s-.01,0-.01,0l.06.02.26.09,2.13.74.28.09c.07.02.06.02.04.02h-.03s-.14.01-.14.01l-.28.02-.55.04-2.2.17c.63.29,1.26.5,1.88.63.31.07.62.12.92.16h.12s.03.02.03.02c.02,0-.08-.02-.11-.03l-.29-.08-1.14-.33-1.12-.33c-.33-.1-.91-.27-.68-.22.69-.07,1.55-.26,2.47-.38.91-.12,1.89-.18,2.67-.03l.14.03s.11.01.07.07c-.02.09-.06.19-.09.29-.07.2-.17.42-.29.65-.24.46-.59.99-1.06,1.54-.24.62-1.42,1.74-2.25,2.42-.84.7-1.37,1.06-.56,1.13.88-.35,2.2-.81,3.73-1.34,1.53-.53,3.28-1.13,4.97-1.62,3.39-1,6.52-1.36,7.33.13-.12.26-.61,1.36-1.31,2.92-.35.74-.74,1.58-1.17,2.49-.21.43-.43.88-.65,1.34-.22.45-.45.93-.65,1.25-1.64,2.88-3.5,5.93-4.55,7-3.24,3.03-4.21-6.81-6.98-4.24.68.31,1.06,2.52,1.14,3.43-1.18,2.15-1.97-1.5-2.9,3.58,1.22.75.53,3.28.08,4.72-.2.64-.44,1.39-.24,1.11.13-.2.65-1.04,1.8-2.91-.06.64-.13,1.19-.22,1.69-.05.25-.09.48-.14.7-.06.24-.12.48-.17.7-.27,1.03-.58,1.88-.92,2.78-.68,1.79-1.5,3.83-2.39,7.64,1-1.16,1.95-.5,2.8.62.85,1.15,1.62,2.68,2.07,4.07,1.58-.04,2.94-.03,4.03.07-.97.47-.83,1.44-.64,1.91,4.89,1.34,8.74,2.68,12.66,4.01,4,1.35,8.2,2.72,13.34,4.03.02-.09.05-.21.08-.33.36-.08,1.01-1.2,1.64-1.95.63-.74,1.23-1.14,1.39.65.06-2.22-.33-4.49.46-7.93.93-1.31,1.33-1.57,1.41-1.11.08.44-.13,1.56-.35,2.74-.22,1.19-.44,2.45-.38,3.22.07.77.4,1.09,1.37.15-.6-.87-.44-3.78-.13-6.98.16-1.53.34-3.22.52-4.86.1-1.3.18-2.57.2-3.66-.67.17-1.19.84-1.58,1.82-.2.5-.36,1.04-.51,1.69-.16.69-.29,1.44-.41,2.24-.46,3.15-.72,7.24-.96,10.23-1.36-1.51-2.24-5.14-2.89-8.7-.32-1.82-.6-3.57-.77-5.37-.08-2.19,0-4.6.23-7.14,1.13-7.98,2.96-2.84,2.83-4.31.96-3.31,1.35-5.82,1.44-7.88.19-2.49.12-4.65.05-6.74-.07-2.1-.15-4.16.07-6.51.11-1.18.28-2.43.56-3.77.14-.67.3-1.37.5-2.09.1-.35.2-.72.31-1.1.06-.18.11-.37.17-.56l.09-.28.05-.14.09-.08c1.28.32,2.76.74,4.4,1.25,4.1,1.84,4.41,2.97,4.34,3.98-.12,1-.63,1.83.33,2.8-1.52-.08-2.91-.31-4.26-.63-.17-.08-.14.15-.19.23l-.12.34c-.08.22-.16.44-.24.66-.16.43-.34.83-.51,1.22-.35.78-.71,1.51-1.07,2.25-.71,1.48-1.41,3.03-1.84,4.92.81-1.84,1.59-3.57,2.34-5.18.02,1.39-.12,3.24-.39,4.95-.28,1.72-.7,3.33-1.3,4.43.65-.82,1.33-2.46,2.03-4.62.35-1.08.71-2.29,1.08-3.6.18-.66.37-1.34.56-2.04.09-.35.19-.71.28-1.07l.14-.54.07-.27c.02-.09.03-.22.15-.15,3.7.73,7.76,1.48,11.61,2.15.98.18,1.96.36,2.91.53.98.18,1.94.36,2.87.55,1.87.34,3.62.74,5.2,1.13,1.07-.27,2.51-.5,3.48-.81.97-.32,1.46-.69.65-1.18-1.22.02-2.45,0-3.67-.01-3.15-2.01,7.01-1.8,2.51-3,4.94-.84,10.26-2.45,16.82-1.73l1.37,2.38c-.19-.68-4.41-1.27-6.29-.54.7-.25,1.69-.21,2.83-.03,1.15.2,2.45.49,3.77.69,1.32.23,2.65.32,3.83.15,1.17-.15,2.18-.61,2.82-1.51-1.6-.33-3.2-.79-4.76-1.2,2.28-.81,4.73-2.03,7.2-3.19.62-.29,1.24-.56,1.87-.81.62-.27,1.24-.53,1.88-.75,1.28-.41,2.53-.84,3.88-1-1.52-.84-1.77-.69-2.22-.55-.43.16-1.11.28-3.22-.7.97.68.65,1.2-.33,1.64-1,.37-2.62.72-4.24.9-.81.1-1.59.21-2.28.32-.7.09-1.29.2-1.69.36-.8.31-.85.78.63,1.57-2.2-1.42-3.96-1.7-5.89-1.89-.97-.12-1.98-.23-3.08-.47-1.1-.26-2.3-.7-3.62-1.4.07.4.54.8.4,1.03-.14.24-.9.31-3.28.01-.23.23-.75.51-1.09.67-.15-.03-.2-.05-.32-.08.09.04.17.08.26.11-.22.11-.23.14.1.04,1.13.4,2.04.86,2.41,1.32-.62.44-1.57.75-2.69.98-1.13.2-2.43.31-3.74.39-2.63.12-5.29.1-6.68.41-2.91-.71,1.34-.78-.17-1.82-1.37.34-2.77.63-4.17.93-.04-.46-.53-.94-1.12-1.4-.15-.11-.3-.23-.46-.34-.18-.12-.49-.26-.72-.38-.5-.26-1-.51-1.41-.74-.82-.46-1.31-.84-.85-1.06.23-.11.7-.18,1.49-.19.39,0,.87,0,1.44.02.34.02.48,0,.67,0,.19,0,.4-.01.62-.02l-.77-.11-1.22-.2-2.69-.45c-1.8-.31-3.59-.57-5.4-.93-4.24-1.41-9.79-2.83-14.45-3.68-.69,2.55-1.17,5.12-1.44,7.27-.8,2.4-1.19,6.04-1.36,8.21-.16,2.18-.15,3.11-.24.57l-1.53,8.45-.71,5.13-.46-.02c-1.26,4.6-1.8,9.52-2.66,14.53-.07.4-.05.4-.07.57l-.04.42c-.03.28-.07.56-.12.84-.1.56-.23,1.13-.4,1.65-.35,1.04-.87,1.95-1.57,2.18-.3-.21-.6-.43-.89-.67-.42.13-.92.26-1.63.22-.64-.02-1.35-.19-2.14-.65.13-.5-.27-1.14-.46-1.72-1.25.23-1.26-1.79-3.3-.89-.04,0-.09.01-.14.03,2.7-2.17,3.02-2.52,3.01-3.34v-.15s-.01-.08-.01-.08c0-.05-.02.02.03-.22.13-.7.27-1.4.4-2.1.26-1.39.53-2.77.78-4.09.52-2.64,1.05-5.04,1.69-6.84l-1.9-.77c.35-1.27.65-2.53.92-3.82.2-.93.4-1.87.6-2.82.22-1.09.45-2.2.67-3.32.87-4.46,1.66-9.06,2.47-13.95l-2.23,1.53c.04-.93.17-1.94.38-3.04.1-.55.23-1.12.36-1.71-.61-.15-1.22-.31-1.83-.48-2.45-.68-4.97-1.54-7.71-2.5-.36-.12-.72-.25-1.08-.37-.82-.23-1.64-.46-2.46-.69l-1.24-.35-.62-.17-.09-.04c-.48-.19-.96-.38-1.45-.57-.98-.38-1.98-.77-2.99-1.14-.51-.18-1.02-.36-1.53-.54l-.19-.07-.1-.03-.05-.02-.18-.05-2.52-.68-2.39-.64-.63-.19c-1.69-.49-3.39-.96-5.07-1.37.3-.28,1.36-.13,2.66.22.65.17,1.36.4,2.07.65l.53.19.26.1.13.05h.03s.13.05.13.05l.26.08c1.35.4,2.67.79,3.93,1.17l-3.13-1-.8-.25-.4-.13-.1-.05-.41-.19c-.54-.25-1.09-.49-1.65-.72-1.11-.46-2.23-.89-3.35-1.29-2.25-.79-4.51-1.45-6.7-2l-.41-.1c-.13-.03-.31-.12-.3.09l-.19.85-.37,1.73c-.24,1.16-.46,2.34-.67,3.51-.42,2.35-.79,4.71-1.14,7-.33,2.23-.67,4.45-1,6.65-.17,1.05-.34,2.1-.51,3.14-.17.95-.35,1.9-.52,2.84-.46,2.59-1.19,5.04-2.49,7.2.05,2.49-.58,4.12-1.43,5.65.05-.22.07-.42.05-.6-.08.23-.17.59-.26.95-.56.95-1.17,1.93-1.73,3.01.67-.87,1.25-1.72,1.61-2.49-.21.9-.42,2.05-.62,3.32-.07.4-.04.42-.05.6,0,.15,0,.31,0,.47,0,.32.02.67.05,1.03-.63-.13-1.25-.31-1.85-.54,0,.09-.01.14,0,.24-.42.22-.26.52.16.9.42.37,1.12.73,1.84.85.11.87.27,1.81.51,2.76-1.58-.86-1.36.47-1.47,1.86-.68.02-1.69-.25-2.88-2.05-.01.41-.39.61-.99.71-.51.12-1.22.16-2.03.23-.21.02-.41.04-.62.06l-.32.04s-.13,0-.25,0h-.31c-.5-.05-.6.02-.84.06-.22.05-.44.1-.67.17-.89.26-1.82.66-2.55,1.35.18-.41-.19-.72.75-.52-.85-.41-1.6-.8-2.55-1.06-.93-.26-1.95-.36-3.4-.23.61-.69,1.3-1.36,2.04-2.01l-.37.08c-.99-.36-1.87-1.13-2.65-2.32,1.2-1.71,2.04-2.67,2.78-2.98.74-.32,1.35.08,2.14.81-.51-.97-.71-1.93-.81-2.68-.05-.38-.07-.72-.09-1.03.02-.44.08-.96.12-1.4.17-1.81.3-3.44-.09-7.82l1.44.78c.66-2.9-.25-8.02,1.45-9.44.14-.18.28-.38.42-.59.14-.22.27-.42.45-.81.33-.7.66-1.52,1-2.43.68-1.83,1.4-4.06,2.15-6.58.74-2.52,1.51-5.34,2.31-8.35.2-.75.4-1.52.6-2.29l.15-.58c0-.08.1-.23.03-.26l-.29-.08c-.39-.1-.77-.21-1.16-.31-1.57-.42-3.17-.84-4.81-1.27-3.29-.87-6.69-1.78-10.12-2.69-1.68-.46-3.36-.92-5.04-1.38-1.2-.35-2.4-.7-3.59-1.05-4.76-1.43-9.37-2.92-13.34-4.64,2.08,5.32-7.19-3.95-8.72-.6-.58-1.28-1.08-2.05.26-2.7-.85.05-1.62-.1-2.24-.31-.63-.21-1.11-.47-1.54-.68-.91-.44-1.52-.66-4.12-.22-.15-.05-.33-.1-.54-.16.84-.55,1.3-.58,1.7-.64.4-.04.74-.1,1.25-.45-.25-.01-.89-.37.1-.99.96-.56,1.02-.02,1.53,0,.32-.96-.51-1.32-1.71-1.74-1.22-.39-2.91-.63-4.55-.84,1.44-1.43,2.15-2.25,2.43-3.2.07-.25.1-.45.13-.76.07-.37.11-.76.12-1.15.03-.79-.05-1.64-.2-2.6.38-.26.83-.56,1.2-.82.39-.25.66-.26.89-.23.22.05.37.22.4.58-.04.53-.26,1.39-.73,2.69.26-.5.7-1.37,1.26-2.47.35-.62.76-1.35,1.17-2.11.81-1.53,1.56-3.19,1.97-4.75.92.02,1.51-.24,1.32-1.02.84.89,2.72.91,3.27.75,1.03.31,1.84.56,2.54.77.45.13.86.25,1.24.37.46.13.9.26,1.34.38.87.25,1.74.48,2.76.72.52.12,1.08.25,1.69.39.33.07.67.14,1.02.21.21.04.42.08.64.12.15.02.31.05.46.07l.44.05.21.02c.13,0,.27.01.41,0h.2c-.05,0,.29-.02.5-.05.23-.03.47-.08.7-.14.47-.13.92-.32,1.31-.55-.02,0,.34-.17.92-.68.5-.46,1.1-1.19,1.44-2.18.36-.98.38-2.12.18-2.96-.19-.86-.53-1.45-.81-1.87l-5.74,8.25c.11.02.72.12,1.38.23l-1.31-.5,5.45-7.83c.39.58.96,1.67.87,3.21-.04.75-.28,1.52-.62,2.13-.34.61-.75,1.06-1.11,1.38-.35.31-.78.57-.74.54l-.22.12c-.15.08-.31.15-.47.22-.32.13-.66.23-1,.29-.17.03-.34.06-.51.07h-.25c-.2.02-.4.01-.59,0-.22-.02-.32-.04-.45-.07-.17-.04-.31-.08-.41-.11-.22-.07-.38-.13-.54-.2.2-.12.39-.23.63-.32.11-.05.25-.09.42-.12l.39-.05c.17,0,.34-.01.51-.03h.15c.14-.03.28-.05.42-.07.28-.05.57-.14.84-.25.13-.06.26-.12.39-.18l.18-.1.12-.08c.13-.08.27-.18.42-.31.3-.25.63-.6.92-1.09.29-.49.5-1.12.55-1.75.1-1.29-.38-2.21-.71-2.69l-4.41,6.34c1.74-.57,3.25-.24,5.45-.17,1.09,0,2.35-.02,3.72-.42,1.37-.36,2.85-1.1,4.1-2.27l.03.38c1.96-1.24,3.17-2.61,4.01-3.73.84-1.14,1.32-2.09,1.66-2.86l.08-.18.13-.48c1.03-3.67-.66-2.43,3.42-11l-2.03.2c-3.72-2.13,5.04-10.14,5.26-17.56l-1.7,2.27c-.41-4.18,8.12-9.38,9.58-13.11.56-.75.23,1.47.19,2.7,4.88-9.51-2.11-1.92-.8-9.58,1.66-1.06,2.9,2.62,4.41-2.38,1.69-2.26-.61-15.75,3.64-22.03-1.39,1.27-2.78,2.53-2.67-1.16.23-1.31.79-2.77,1.46-4.32l-8.13,4.94c.94.41,1.9.87,2.88,1.33l4.52-13.97c-1.25-.73-2.59-1.35-3.82-1.83l5.74,9.61c1.34-3.18,2.25-6.33,1.32-8.96.45-.61.78-.8,1.04-.77.2-4.3,1.95-13.65.83-16.55,7.37-2.18,3.22-26.23,9.13-24.67l.82-3.7.19-.84.02-.54c.08-1.97-.06-4.37-.54-6.55-.47-2.21-1.27-4.33-2.37-6.28l.79.14c-1.37-2.81-3.14-4.84-4.9-6.22-.86-.71-1.75-1.24-2.56-1.72-.84-.42-1.64-.79-2.37-1.05-.73-.22-1.4-.4-2.04-.53-.64-.14-1.19-.14-1.74-.18-1.09-.07-2.04.03-2.97.15-.68-.34-.96-.57-.93-.73l1.84,10.37c.47-.32,1.03-.79,1.52-1.5.49-.7.87-1.63.98-2.54.12-.91,0-1.74-.17-2.36-.09-.31-.19-.58-.3-.82l-.14-.29c-.24-.45-.52-.86-.82-1.19-.29-.33-.59-.6-.86-.8-.09-.07-.17-.13-.25-.19l-.05-.05c-.13-.11-.17-.16-.13-.17.02,0,.06,0,.11.02.03.01.06.02.09.04l.06.02s0,0,.17.1c.46.31,1.02.78,1.49,1.42.12.16.23.33.33.5l.15.27.08.16.13.29c.08.2.16.43.23.68.3.98.35,2.53-.22,3.9-.55,1.37-1.51,2.27-2.21,2.75l-1.93-10.91c.21-.16.66-.24.79-.36-.24-.09-.47-.18-.64-.24l2.13,12.03c.79-.53,1.92-1.58,2.53-3.24.63-1.65.44-3.48.03-4.55-.57-1.37-.37-.8-.61-1.27-.14-.23-.3-.45-.47-.67-.34-.43-.74-.82-1.16-1.15-.21-.16-.48-.34-.44-.31l-.11-.07c-.15-.09-.3-.18-.45-.26l-.35-.18-.55-.24-.54-.22c-.22-.09-.45-.17-.66-.26-.36-.13-.7-.26-1.04-.39-.62-.22-1.22-.43-1.78-.63-1.02-.34-1.93-.64-2.77-.91-.93-.32-1.7-.5-2.53-.57-1.7-.15-3.48.17-8,.48-.18-.07-.2-.29-.3-.49.85-.68,1.69-1.32,2.52-1.92-.49-.43,1.09-3.55,2.41-6.22.16-.33.32-.67.49-1.02.12-.33.23-.66.35-.99l.22-.51c.29-.68.54-1.36.75-2.06.41-1.42.61-2.92.56-5.11.15.32.4.91.51,1.64-.01-.38,0-.75.02-1.12,1.3-.04,3.24.61,4.88,1.37.41.19.81.39,1.2.59l.56.3.27.15c.09.05.13.09.39.18,1.63.63,3.24,1.24,4.78,1.8,6.19,2.24,11.52,3.56,14.63.77l6.4.29-3.84-6.23v.16s-.13,5.91-.13,5.91l3.95.28,3.02.21c-1.2-.33-2.17-.63-2.86-.87l-4.71-1.64,1.38-3.75c.02-.05.04-.11.05-.15l3.31,5.37c-4.04-1.56-.91-1.95.65-2.61l-1.34-2.17c.03.06.05.12.08.18l1.07,2.1.18-.07c.64-.27.89-.6.27-1.07l-.64-.49.2-.23s.07-.08.1-.14l.39.63c-.1-.08-.24-.16-.4-.24.14.02.28.05.44.08l-.26-.43s-.02.1-.03.15l-.06.36.32.06c2.21.43,4.82,1.62,6.44,2.64,1.6,1.02,2.08,1.84-.9,1.32l-.97-.6c-.58.83.11,1.56,1.62,2.27,1.5.7,3.76,1.37,6.1,2.01,4.68,1.29,9.62,2.48,10.36,3.97l.52.12.26.06.07-.27.27-1.1.55-2.19c.37-1.46.74-2.91,1.1-4.36.76-2.9,1.52-5.79,2.27-8.67.39-1.45.78-2.89,1.17-4.33l.86-3.03c.59-2.01,1.17-4.02,1.75-6.02.59-2,1.19-3.99,1.78-5.97l.88-2.93.52-1.49c.64-1.8,1.28-3.6,1.91-5.38,1.22.39,2.43.79,3.63,1.18l1.45.45.71.21.35.1.87.23c-.03-.26-.24-.56-.36-.84l-.21-.43c-.05-.14-.04-.26-.07-.39-.08-.52-.2-1.06-.37-1.6l4.45,1.28c.7.88-.41,2.26-2.37,1.64.24.91.97.74,2.4.44,1.37-.31,3.18-.81,3.56-1.04.85.42,1.16.74,1.13.99-.48.62-.86.75-1.19.72-.94.24-2.12.4-2.89.55-.78.15-1.22.27-.88.38l1.83.24v.04s.06-.08.06-.08c0-.1.01-.2.01-.3.28-.05.55-.11.77-.17,1.01.42,2.04.48,1.1,3.74-.59,1.16-1.12,1.4-1.54,1.49-.43.09-.76.04-.9.38-.21-.01-.36.18-.35,1.04l-2.46,8.81,3.14-3.03c.11,4.25-2.22,8.41,1.35,4.9-.68.64-1.34,1.63-1.98,2.9-.32.63-.64,1.33-.95,2.08-.15.38-.3.77-.46,1.17-.08.2-.15.41-.23.61-.09.28-.19.57-.28.86-1.54,4.75-3.11,10.64-4.54,16.34-.18.71-.35,1.42-.53,2.13l-.26,1.06-.13.53-.06.26c0,.08-.1.21.04.2,1.41.32,2.8.64,4.15.95,3.39.78,6.6,1.52,9.46,2.18,1.1.27,2.14.51,3.1.74.69.17,1.31.34,1.86.5,1.1.32,1.91.61,2.34.87h.28s.14-.02.14-.02l.82.15,1.61.3.79.15.39.07.1.02h.02s.04,0,.04,0l1.4.06c.93.05,1.84.13,2.75.23,1.83.19,3.65.47,5.55.83.86-4.1,1.9-8.1,3.13-12.6-1.01,2.05-3.47,1.19-1.52-5.3,1.09,1.16,1.96,1.05,2.79-.1.21-.28.41-.63.61-1.02.17-.35.36-.73.56-1.14.33-.7.65-1.51.96-2.37,1.27-3.46,2.57-7.82,5.03-9.73-.88.91-1.11.31-1.02-1.01.04-.66.16-1.5.31-2.42.1-.55.1-.72.14-1.01.03-.28.07-.56.1-.83.13-1.13.23-2.28.06-3.12-.18-.81-.61-1.4-1.69-.84.63-1.62,1.04-1.21,1.53-.67.48.56,1.06,1.18,1.8.81-.02-.97.04-1.95.17-2.9,1.08.11,2.36.41,3.65.81,1.24.38,2.36.82,3.46,1.28.03.02.23.08.37.13l.45.15c.18.07.28.12.42.18l.77.34c.48.22.97.43,1.45.65,1.07.45,2.12.86,3.23,1.2-.31,1.03-.54,2-.68,2.99.37-.05.93-.45,1.51-.73.57-.26,1.15-.41,1.48.46-.84.96-1.65,1.78-2.42,2.46-.39.34-.76.64-1.13.9-.18.13-.37.26-.55.37l-.27.16-.13.08s-.09.05-.15.14c-.38,2.93,3.29,3.61-.38,8.22.76-.59,1.9-1.47,1.64.49-.76,2-1.47,4.02-2.14,6.06l-.97,3.07-.47,1.54-.55,1.93c-.82,2.97-1.62,5.98-2.39,9l-1.14,4.53-.56,2.26-.28,1.13-.14.56-.07.28c-.03.1.03.15.04.22,3.62,1.25,7.24,2.5,10.87,3.75,1.79.65,3.6,1.26,5.35,1.94l2.29.89,1.77.71c4.7,1.92,9.3,4.06,13.55,6.64,4.26,2.57,8.22,5.55,11.44,9.05,3.26,3.46,5.72,7.47,7,11.63-.3-1.72-.19-2.17.25-1.91.21.13.51.43.83.84.3.42.63.94.97,1.48-.58-1.6,1.51-.85,2.17-1.61,1.11,3.61,1.64,7.23,1.61,10.76,1.5.57,2.22,3.38,2.45,6.15.25,2.78.18,5.49,1.4,6.14-.09-1.2-.24-2.38-.4-3.54.77,1.15,1.53,1.36,2.36.95.85-.41,1.66-1.42,2.48-2.65.86-1.23,1.56-2.65,2.39-3.8.81-1.14,1.58-1.99,2.57-1.93-1.08-1.47-1.57-3.21-1.87-5.26-.34-2.03-.49-4.37-.99-6.81-.12-.61-.26-1.23-.41-1.86-.16-.62-.37-1.23-.57-1.85-.4-1.25-.98-2.44-1.65-3.6-.68-1.15-1.53-2.21-2.5-3.16-1.01-.91-2.12-1.76-3.46-2.35-.93-2.29,2.24.73,2.12-.79-3.04-1.07-5.34-3.19-9.33-7.62l.77.13c-6.49-5.23-11.31-8.45-16.35-11.82-2.54-1.64-5.14-3.31-8.14-5-1.49-.87-3.1-1.71-4.82-2.62-.19-.1-.49-.24-.6-.31l-.3-.18c-.19-.11-.37-.23-.57-.35-.36-.21-.74-.44-1.14-.67-.27.57-.5,1.16-.68,1.76-1.74-.95-1.59-1.5-1.89-2.11-1.2.32-1.59.57-1.41.84.17.26.84.55,1.51.83.68.29,1.34.61,1.61.96.26.36.19.78-.89,1.21-.28-1.52-1.76-2.54-3.74-3.39-.02-.02-.07-.02-.08-.05l.03-.11.07-.21.13-.42c.08-.28.16-.56.24-.85.15-.56.31-1.13.46-1.69.31-1.12.62-2.23.98-3.19.09-.24.18-.47.28-.7l.07-.16.11-.29c.08-.2.15-.4.23-.59.3-.78.62-1.48.96-2.1.67-1.24,1.4-2.11,2.23-2.47,1.39-5.5-2.53,1.08-1.13-4.41l1.51-1.17-1.14-1.76c1.14-3.55,3.04-5.01,4.04-4.9-.33.85-.35,2.56-.5,3.52.63-1.09,1.12-2.46,1.52-3.93.12-.46.23-.93.35-1.4.15-.63.29-1.27.44-1.9.28-1.27.54-2.53.78-3.74.97-4.87,1.59-8.84,2.18-10.25l-2.93,8.72c1.05-5.2,2.25-10.51,3.56-16-7.57-1.86-15.39-3.78-23.16-5.68-1.94-.47-3.87-.94-5.8-1.4-1.97-.46-3.94-.92-5.89-1.38-3.74-.86-7.38-1.65-10.82-2.33-.96,4.75-1.79,9.36-2.39,13.63.39-.34.78-.66,1.16-.96-1.2,8.22-2.22,11.31-3.07,13.26-.93,2.27-2.01,4.64-3.15,10.82l-.1-.49c.06.66.09,1.37.08,2.11,0,.37-.02.75-.05,1.13-.02.35-.08.86-.07,1.05-.04,1.02-.23,2.14-.54,3.19-.22-1.27-.92-.58-1.55-.23-.64.4-1.21.46-1.48-.85.05,1.63.06,2.88.11,3.79.02.46.05.84.1,1.18.01.09.02.17.03.25-.01.04-.04.06-.05.09-.03.06-.06.12-.08.18-.09.26-.08.59-.26,1.02-.2.43-.56.96-1.74,1.53-.31-.33-.61-.65-.89-.97l-.41-.48-.05-.06-.02-.03s.05,0,.07,0h.34s.73-.03.73-.03c.26.1.58.22.75.3-.09.02-.18.04-.26.06-.17.04-.33.08-.49.12-.31.08-.6.15-.88.22-.56.14-1.09.24-1.71.3-.63.05-1.35.05-2.31-.03-.44-.05-.94-.1-1.51-.16.11.04.23.08.35.13.08.03.37.11.1.07-.29-.04-.6-.09-.92-.14.32,0,.58-.03.81-.05.11-.02.22-.03.31-.05.05,0,.09-.02.13-.03l.06-.02s-.01-.02-.02-.03c-.14-.19-.18-.35-.07-.48.1-.13.35-.22.72-.29.09-.13-.04-.32-.05-.48-.08-.33-.09-.67.21-.95.15-.14.38-.28.71-.39.16-.06.35-.12.56-.17.1-.02.22-.05.34-.08-.32-.13-.81-.3-1.3-.47l.94.14.48.08c.12.02.07,0,.07,0l-.03-.02-.22-.19c-.14-.12-.28-.23-.42-.33-.28-.2-.55-.37-.83-.5-.28-.14-.57-.25-.87-.34-.15-.05-.3-.09-.46-.12-.14-.05-.4-.02-.29-.21.2-1.14.05-2.02-.04-2.98-.09-.94-.12-1.94.22-2.85.36-1,.94-1.33,2.53-2.8-.63-1.71-1.26-1.91-1.84-1.31-.29.3-.57.81-.84,1.43-.11.28-.23.58-.36.9-.09.22-.18.46-.26.7-.66,1.95-.96,4.12-1.16,3.14-.95,1.04-1.6.46-1.76-1.16-.08-.79-.05-1.82.08-2.86.03-.26.07-.51.12-.78.06-.31.12-.61.19-.9.14-.59.29-1.14.47-1.63.55-2.03,2.26-3.44,4.14-5.63.94-1.09,1.92-2.38,2.82-4.04.45-.83.88-1.75,1.28-2.78.17-.39.46-1.37.71-2.21.25-.87.5-1.79.73-2.75-.4,1.53-.12,1.67-.52,3.22,1.25-2.85,1.63-5.85,2.08-8.78.46-2.99.99-5.88,2.89-9.98-.44-.58-.56-1.32-.52-2.16-1.94-.2-3.41-.68-4.85-.91-1.43-.23-2.79-.2-4.27.69l7.16,1.39-1.12,5.9c.25-1.94.22-3.67.12-5.3-3.39-.18-6.7-.27-9.87-.65-1.58-.19-3.19-.47-4.83-.89-.82-.21-1.65-.46-2.52-.76-.43-.15-.87-.31-1.32-.48-.23-.09-.46-.18-.69-.27-.19-.09-.38-.17-.58-.26.23-.11.48-.22,1.04-.27.52-.05,1.15-.08,1.85-.09,1.39-.01,3.04.06,4.42.16-1.52-.86-3.39-1.17-5.16-1.45-.42-.07-.85-.14-1.27-.21-.35-.06-.56-.09-1.06-.22-.88-.22-1.76-.53-2.67-1,.32-.74,1.57-.88,3.44-.67.36.03.6.03,1.07.11.54.09,1.1.2,1.7.32,1.19.24,2.48.54,3.83.85,5.56,1.31,11.21,2.73,17.15,2.97-1.38-1.03-6.37-1.69-9.67-2.19-3.25-.49-5.55-1.01-1.98-1.89-2.52.5-4.61.5-6.68.2-1.03-.15-2.06-.38-3.12-.66-.26-.07-.53-.15-.8-.22l-.4-.12-.26-.08-.52-.17c-.27-.08-.53-.17-.8-.25-2.25-.7-4.71-1.48-7.27-2.04-2.6-.57-5.07-.86-7.24-.54-.07-.67-.12-1.33-.16-2-1.41-.09-3.84.03-6.38-.44-.09.46-.19.9-.3,1.31l-.1-1.96c.99-.4,2.09-.78,3.31-1.13-1.39.02-2.79-.14-4.25-.44-.81,3.88-2.13,6.88-3.48,10.27-1.33,3.34-2.67,7.07-3.19,11.08,2.39-9.71,3.14-10.33,3.7-9.46.55.9,1,2.96,2.46-.02-.74,5.61-1.49,8.64-2.41,10.95-.98,2.54-1.8,3.07-2.79,4.07-1.95,1.86-4.16,3.87-5.66,11.77.27-2.17,3.08-7.64,3.11-4.13-.56,1.44-1.26,3.09-2,4.58-.37.75-.75,1.45-1.12,2.07-.19.31-.37.6-.56.85-.05.08-.09.1-.12.11l-.1.03c-.07.02-.13.03-.2.05-.14,1.38.28,1.69.91,1.6.61-.04,1.47-.66,1.76.59-1.25.23-1.12.7-.76,1.81.37,1.06.98,2.73.94,4.44l-1.47-2.09c-.07.12-.13.24-.19.35-.06.1-.06.29-.28.16-.34-.11-.62-.19-.86-.23-.48-.09-.79-.06-.99.04-.41.21-.4.72-.38,1.22.01.5.03,1-.47,1.15-.49.16-1.55-.04-3.42-.87.93-.7,1.66-1.44,2.18-2.24-.93.02-1.92.02-2.98,0,.19-.71.33-1.43.43-2.15-1.26.49-2.38.55-3.35.37l6.68,10.82.03-.15,1.79-8.87-8.45-1.95c-2.03-.47-3.93-1.22-6.88-2.28,1.04,1.66-1.62,3.21-6.84,1.96-3.27-2,2.43-1.28-5.02-2.86,1.96-.76,4.15-1.77,6.93.76.48-.53,1.94-.76,2.43-1.28-3.51-2.23-9.54-2.69-12.22-3.34,1.01.33,2.22.73,2.78,1.16l-5.67-.04h-.71c-.27-.02-.7-.06-1.04-.09l-2.12-.18-4.07-.33c-2.59-1.39-.7-1.52,1.47-1.57-3.52-.66-5.73-.3-10.5-1.32.3-.73.22-1.58,1-2.09.79-.52,2.47-.71,6.46-.09-5.68-.85-11.01-1.62-16.01-2.3l-.16,1.04c-.39.16-1.29,1.85-2.11,3.26-.82,1.39-1.55,2.49-1.48,1.01-.83,2.38-1.5,5.38-2.07,8.59-.57,3.21-1.04,6.63-1.5,9.98l-.09.63-.04.31v.19s-.06.73-.06.73c0,.08-.04.36-.07.55l-.09.63-.19,1.25c-.25,1.66-.52,3.31-.83,4.94-.62,3.26-1.39,6.45-2.54,9.77.18.55.18,1.75-.22,4.26-.43,1.48-.86,2.95-1.28,4.4,4.72,1.38,9.38,2.91,14.7,4.3,2.65.69,5.43,1.35,8.34,1.91.71.14,1.51.29,2.1.38.43.05.86.09,1.29.13.87.07,1.77.1,2.63.09.25.28.49.56.65.82.03.06.08.13.09.19l.02.09s0,.03,0,.04v.02s.28-.89.28-.89l1.16-3.49,1.04-2.92.48-1.23c.12-.32.26-.64.4-.96.23-.55.51-.99.55-.97l-2.78,11.21.56.99c.18.32.35.63.44.97.83.12.97-.1,1.11-.46.06-.18.09-.4.09-.65-.04-.24-.11-.51-.16-.78-.11-.54-.18-1.09.21-1.4.19-.16.51-.25,1.01-.27.37.02,1.01.07,1.58.29.88.3,1.27.74,1.33,1.1.05.37-.16.65-.47.92-.65.53-1.48,1.06-1.62,1.58.56-.02,1.37.07,2.06.52.34.22.68.53.91.9.27.35.41.85.47,1.54l.25-1.64c-.39,2.29-1.16,4.65-2.54,6.91.07-2.47.93-4.21,1.28-6.45ZM155.88,231.28c0-1.66-.44-5.08.95-5.95,1.7,2.31.33,3.44-.95,5.95ZM98.77,320.02c-.19-1.18,1.21-3.59,3.04-5.98-.58,1.73-1.47,3.61-3.04,5.98ZM239.86,349.5c-.09.01-.16.03-.22.05-3.06-.94-4.11-1.25-3.79-1.16.31.08,1.9.53,4.01,1.11ZM251.78,352.44c1.14-.09,1.07-.38.56-.73-.82.37-3.38,0-6.41-.69,1,.67,2.49,1.35,5.85,1.42ZM244.97,90.88c.23-.21.46-.44.69-.68.13,1.79-.25,1.22-.69.68Z"/>
        <path class="cls-2" d="M103.35,302.83c.48-.29.86-.26,1.24-.21-.05-.71-.38-.87-1.24.21Z"/>
        <path class="cls-2" d="M137.21,135.29l.13-.43c-.07-.19-.17-.26-.29-.29l.16.72Z"/>
        <path class="cls-2" d="M198.88,374.25c.64-1.42,1.19-2.17,1.68-2.63-.44-.2-.99.39-1.68,2.63Z"/>
        <path class="cls-2" d="M290.37,351.17c-1.38.28-2.74.63-4.16.85,2.06-.2,2.79.09,3.87.32-.14-.44-1.01-1.02.3-1.17Z"/>
        <path class="cls-2" d="M328.92,346.45c.31-.68.99-1.1,1.29-1.77l-.79-.47c-.49.54-.91,1.08-1.23,1.54-.34.45-.59.82-.69,1.08-.2.51.17.55,1.42-.38Z"/>
        <path class="cls-2" d="M295.19,356.98c.3.77,1.13.89,2.27.72,1.14-.16,2.54-.74,4.03-1.23-.18.06-.35.11-.54.13.17-1.2-.5-1.44-1.58-1.2-1.07.27-2.61.93-4.19,1.58Z"/>
        <path class="cls-2" d="M302.18,356.21c.9-.35,1.85-.61,2.75-.84.03-.49-.25-.44-.74-.18-.5.24-1.21.68-2.01,1.03Z"/>
        <path class="cls-2" d="M262.73,352.88c1.46.58,1.16-1.96,1.94-1.21.94-.93-1.6-.59-3.37-.03-1.79.51-2.76,1.31,1.43,1.24Z"/>
        <polygon class="cls-2" points="298.72 361.78 297.17 360.02 295.63 361.93 298.72 361.78"/>
        <path class="cls-2" d="M272.48,361.82c1.75.24,3.51.54,5.28.72-.07-.34.6-.53,1.43-.67-3.26-.05-6.8-.68-6.71-.05Z"/>
        <path class="cls-2" d="M279.18,361.87c1.7.08,3.31-.05,4.24-.38-.91.03-2.87.18-4.24.38Z"/>
        <path class="cls-2" d="M291.56,363.47l-1.62-.27c-1.26.08-2.52.12-3.78.13,1.8.12,3.59.12,5.4.14Z"/>
        <path class="cls-2" d="M233.45,384.56l-.86,5.8c.52.74,1.32-.7,1.58-2.87-.13-1.47.14-3.64-.72-2.93Z"/>
        <path class="cls-2" d="M242.74,369.99c-.66.95-1.09.82-1.89,1.27l2.27,1.17c-.14-.76-.27-1.57-.38-2.44Z"/>
        <path class="cls-2" d="M239.49,385.41c.53.73-.13,8.7,1.51,1.48-.52-.74.34-6.55-1.51-1.48Z"/>
        <polygon class="cls-2" points="207.68 367.16 207.35 368.6 211.35 369.38 207.68 367.16"/>
        <path class="cls-2" d="M189.61,389.55c1.88-5.52,1.47-6.46,1.01-7.11-.11-.16-.22-.34-.31-.53-.1-.15-.16-.33-.17-.58-.02-.51.2-1.33.87-2.77-.54-1.81-2.2,4.72-2.6,2.9-.54,6.37-1.97,9.73,1.2,8.09Z"/>
        <path class="cls-2" d="M188.41,381.45c0-.69-.01-1.42-.09-2.22-.05,1.23,0,1.83.09,2.22Z"/>
        <path class="cls-2" d="M345.61,195.03c-.23,1.21-.44,2.39-.77,3.59.47-.76.95-1.55,1.34-2.34l-.58-1.25Z"/>
        <path class="cls-2" d="M356.41,216.78l-3.81-5.04,6.55-1.77s0,0,0,0l-6.56,1.78-4.69-6.21.56,27.02c1.8-4.39,4.19-8.55,6.94-12.18.29-1.2.62-2.39,1.01-3.58Z"/>
        <polygon class="cls-2" points="350.74 212.24 350.75 212.24 350.73 212.25 350.74 212.24"/>
        <path class="cls-2" d="M348.53,202.27c-.87.23-1.78.45-2.68.65.68.83,1.36,1.69,2.04,2.59h.01s0,0,0,0c-.02-.91,0-2.62.63-3.24Z"/>
        <path class="cls-2" d="M147.81,242l.52.48c.82-.5,1.12-1.5,1.73-3.5l-2.26,3.02Z"/>
        <polygon class="cls-2" points="162.81 189.9 162.5 190.9 165.25 189.58 162.81 189.9"/>
        <path class="cls-2" d="M168.03,156.37c-.04.07.42-.17.39,0-.2.02.26-.39.43-.75.15-.33.11-.39-.82.75Z"/>
      </g>
    </g>
  </g>
</svg>