<?xml version="1.0" encoding="UTF-8"?>
<svg id="Layer_1" data-name="Layer 1" xmlns="http://www.w3.org/2000/svg" viewBox="0 0 479 479">
  <defs>
    <style>
      .cls-1 {
        fill: #fff;
      }

      .cls-2 {
        stroke: #000;
        stroke-miterlimit: 10;
        stroke-width: 10px;
      }
    </style>
  </defs>
  <circle class="cls-1" cx="239.5" cy="239.5" r="239.5"/>
  <path class="cls-2" d="M354.3,207.97c4.98-33.27-20.35-51.15-54.99-63.08l11.24-45.07-27.43-6.84-10.94,43.88c-7.21-1.8-14.62-3.49-21.98-5.17l11.02-44.17-27.42-6.84-11.24,45.05c-5.97-1.36-11.83-2.7-17.52-4.12l.03-.14-37.83-9.45-7.3,29.3s20.35,4.67,19.92,4.95c11.11,2.77,13.12,10.13,12.78,15.96l-12.8,51.34c.76.19,1.76.48,2.85.92-.92-.23-1.89-.48-2.9-.72l-17.94,71.92c-1.36,3.38-4.8,8.44-12.57,6.52.27.4-19.94-4.98-19.94-4.98l-13.62,31.4,35.7,8.9c6.64,1.67,13.15,3.41,19.56,5.05l-11.35,45.58,27.4,6.84,11.24-45.1c7.49,2.03,14.75,3.91,21.86,5.67l-11.2,44.89,27.43,6.84,11.35-45.5c46.78,8.85,81.95,5.28,96.76-37.03,11.93-34.07-.59-53.72-25.2-66.53,17.93-4.13,31.43-15.92,35.03-40.28h0ZM291.62,295.87c-8.48,34.07-65.84,15.65-84.43,11.03l15.06-60.39c18.59,4.64,78.23,13.83,69.37,49.36h0ZM300.1,207.48c-7.73,30.99-55.47,15.24-70.96,11.38l13.66-54.77c15.49,3.86,65.36,11.07,57.3,43.39h0Z"/>
</svg>