<?xml version="1.0" encoding="UTF-8"?>
<svg id="Layer_1" data-name="Layer 1" xmlns="http://www.w3.org/2000/svg" viewBox="0 0 400 400">
  <defs>
    <style>
      .cls-1 {
        fill: #fff;
      }
    </style>
  </defs>
  <circle class="cls-1" cx="200" cy="200" r="200"/>
  <g>
    <path d="M262.69,320.56h-125.51c-18.33-3.41-27.9-15.86-28.8-34.12V113.11c.97-18.27,11.42-31.26,29.99-33.64l122.22-.03c15.35,1,27.69,12.13,30.28,27.23,1.05,62.01.9,124.27.08,186.29-2,13.89-14.12,26.09-28.25,27.6ZM141.77,106.87c-2.86,1.14-3.44,2.93-3.66,5.77-.91,11.67.73,24.49,0,36.29.28,2.08,1.4,3.97,3.52,4.49l114.23.46c2.73-.24,4.75-1.03,5.66-3.77l.22-38.39c-.09-2.16-1.38-3.79-3.28-4.74l-116.7-.11ZM157.87,169.98c-24.03.71-23.43,37.62.71,37.38,25.08-.25,24.11-38.11-.71-37.38ZM199.39,169.98c-24.14.73-23.58,37.62.71,37.38,24.88-.24,23.85-38.12-.71-37.38ZM240.91,169.98c-24.39.72-23.78,37.62.71,37.38,24.68-.24,23.79-38.11-.71-37.38ZM155.95,210.96c-23.64,2.99-19.78,39.89,5.02,37.03,23.73-2.74,20.12-40.21-5.02-37.03ZM197.48,210.97c-23.25,2.69-20.5,38.9,4.11,37.06,24.35-1.82,21.5-40.03-4.11-37.06ZM238.52,210.96c-23.27,3.18-19.54,39.67,5.02,37.03,24.2-2.6,20.25-40.49-5.02-37.03ZM158.26,251.52c-21.83.21-25.22,32.25-3.74,36.9,26.79,5.81,31.18-37.17,3.74-36.9ZM199.79,251.52c-24.69.24-23.93,37.66.34,37.44,24.24-.22,24.29-37.68-.34-37.44ZM241.31,251.52c-27.48.27-22.36,43.12,4.42,36.81,21.34-5.03,17.35-37.02-4.42-36.81Z"/>
    <rect x="148.51" y="116.66" width="102.86" height="26.84"/>
    <path d="M199.38,217.54c15.76-.85,16.65,23.58.75,23.86-15.16.27-16.32-23.02-.75-23.86Z"/>
    <path d="M240.43,217.54c16.28-1.14,16.99,23.91.8,23.9-14.77,0-15.67-22.86-.8-23.9Z"/>
    <path d="M238.98,258.52c18.28-3.14,19.06,25.85.4,23.39-12.8-1.68-13.05-21.22-.4-23.39Z"/>
    <path d="M157.86,217.54c15.87-1.12,16.6,23.9.8,23.9-15.08,0-16.19-22.82-.8-23.9Z"/>
    <path d="M156.42,258.53c16.52-2.38,18.66,21.46,4.08,23.38-16.39,2.16-18.56-21.29-4.08-23.38Z"/>
    <path d="M155.94,177.05c18.98-3.23,18.93,26.51.1,23.22-12.51-2.18-12.17-21.17-.1-23.22Z"/>
    <path d="M238.98,177.05c16.67-2.67,19.13,21.19,4.48,23.31-16.33,2.36-18.66-21.04-4.48-23.31Z"/>
    <path d="M197.46,258.52c16.51-2.82,19.24,20.88,4.97,23.32-16.51,2.82-19.24-20.88-4.97-23.32Z"/>
    <path d="M197.46,177.05c16.51-2.82,19.24,20.88,4.97,23.32-16.51,2.82-19.24-20.88-4.97-23.32Z"/>
  </g>
</svg>